<?xml version="1.0" ?><!-- Uploaded to: SVG Repo, www.svgrepo.com, Generator: SVG Repo Mixer Tools -->
<svg width="800px" height="800px" viewBox="0 0 128 128" data-name="Layer 2" id="Layer_2" xmlns="http://www.w3.org/2000/svg"><defs><style>.cls-1{fill:#ccebf7;}.cls-2{fill:#ea563a;}.cls-3{fill:#fd8d92;}</style></defs><title/><path class="cls-1" d="M86.07,21.69l-3.32-2.06A26.15,26.15,0,0,0,60.09,17,25.58,25.58,0,0,0,43.21,41.1l.43,14.08a3.79,3.79,0,0,1-6.15,3.07l-2.08-1.68a7.93,7.93,0,0,0-4.95-1.73h0a7.89,7.89,0,0,0-7.85,7.9h0a14.06,14.06,0,0,0,4.58,10.35L39.14,84a13.06,13.06,0,0,1,4.24,9.57V98.5l55-.17-.18-55A25.51,25.51,0,0,0,86.07,21.69Z"/><rect class="cls-2" height="13.74" rx="4" transform="translate(-0.34 0.23) rotate(-0.18)" width="68.69" x="36.55" y="98.41"/><path class="cls-3" d="M50.08,71.25l-7.9-13h0a3.76,3.76,0,0,1-4.68,0l-2.08-1.68a7.88,7.88,0,0,0-12.8,6.17,14.06,14.06,0,0,0,4.58,10.35L39.14,84a13,13,0,0,1,3.94,6.88h0L48,86.36a12.07,12.07,0,0,0,3.86-8.88h0A12.12,12.12,0,0,0,50.08,71.25Z"/><path class="cls-3" d="M83.43,82.78l-1.63-1,1-.25a1.47,1.47,0,1,0-.73-2.85l-3.82,1-3.68-2.2,3.84-2.33,3.89,1a1.47,1.47,0,0,0,.36,0A1.47,1.47,0,0,0,83,73.27L81.94,73l1.15-.7a1.47,1.47,0,1,0-1.52-2.51l-1.09.66.23-.92a1.47,1.47,0,1,0-2.84-.73l-1,3.83-3.8,2.31v-4.3l2.78-2.78a1.47,1.47,0,1,0-2.07-2.08l-.73.72V64.6a1.47,1.47,0,0,0-1.48-1.47,1.46,1.46,0,0,0-1.46,1.48v1.82l-.61-.62a1.47,1.47,0,0,0-2.1,2.06l2.73,2.77v4.19l-3.63-2.17-1-3.82a1.47,1.47,0,1,0-2.85.75l.24.92-1.09-.66a1.47,1.47,0,1,0-1.51,2.52l1.16.7-1.06.27a1.47,1.47,0,0,0,.73,2.85l3.88-1,3.85,2.31L65.2,79.72l-3.82-1a1.47,1.47,0,1,0-.71,2.86l1,.24-1.62,1a1.47,1.47,0,1,0,1.52,2.51l1.57-.94-.22.85A1.46,1.46,0,0,0,64,87.06a1.18,1.18,0,0,0,.37,0A1.47,1.47,0,0,0,65.75,86l1-3.77,3.45-2.09v4.16l-2.84,2.83a1.47,1.47,0,0,0,2.08,2.08l.77-.77V89.8a1.47,1.47,0,1,0,2.94,0V88.51l.67.68a1.47,1.47,0,0,0,2.08,0,1.47,1.47,0,0,0,0-2.08l-2.78-2.82V80l3.65,2.18,1,3.76a1.47,1.47,0,0,0,1.43,1.09,1.18,1.18,0,0,0,.37,0,1.46,1.46,0,0,0,1-1.79l-.23-.85,1.57.94a1.47,1.47,0,0,0,2-.51A1.48,1.48,0,0,0,83.43,82.78Z"/><path class="cls-3" d="M105.05,106l-4.42-3.43V98.8a.87.87,0,0,0-.86-.86h0a.87.87,0,0,0-.85.87v4l-3.54,2.77,0-6.79a.86.86,0,0,0-.86-.86.81.81,0,0,0-.86.86l0,6.59-3.56-2.76V98.83a.85.85,0,0,0-.86-.85.82.82,0,0,0-.86.86l0,4-3.54,2.78,0-6.77A.86.86,0,0,0,84,98h0a.87.87,0,0,0-.85.87l0,6.61-3.56-2.76V98.87a.86.86,0,0,0-.86-.86h0a.86.86,0,0,0-.86.86v4l-3.54,2.79,0-6.75a.86.86,0,0,0-.86-.85h0a.87.87,0,0,0-.86.86l0,6.63L69,102.77l0-3.87a.85.85,0,0,0-.86-.85h0a.85.85,0,0,0-.85.86v4l-3.54,2.78,0-6.72a.87.87,0,0,0-.86-.86h0a.86.86,0,0,0-.85.86l0,6.66-3.56-2.76V98.93a.86.86,0,0,0-.86-.85h0a.86.86,0,0,0-.86.86v3.92l-3.53,2.79,0-6.7a.85.85,0,0,0-.85-.85h0a.85.85,0,0,0-.85.86l0,6.68L48,102.88V99a.87.87,0,0,0-.86-.86h0a.86.86,0,0,0-.85.86v3.91l-3.78,3,0-6.86a.85.85,0,0,0-.86-.86h0a.87.87,0,0,0-.86.86l0,6.52L38,103.35a.86.86,0,0,0-1.05,1.36l3.84,3v4a.87.87,0,0,0,.86.86h0a.86.86,0,0,0,.85-.86V108l3.78-3,0,6.57a.86.86,0,0,0,.86.85h0a.86.86,0,0,0,.86-.86l0-6.56,3.55,2.76,0,3.79a.86.86,0,0,0,.86.86h0a.86.86,0,0,0,.85-.87v-3.77L56.78,105l0,6.55a.87.87,0,0,0,.86.86h0a.86.86,0,0,0,.85-.86l0-6.59,3.56,2.76v3.82a.86.86,0,0,0,.86.85h0a.85.85,0,0,0,.86-.86v-3.76L67.32,105l0,6.53a.86.86,0,0,0,.86.86h0a.86.86,0,0,0,.85-.87l0-6.61,3.56,2.76v3.84a.87.87,0,0,0,.86.86h0a.86.86,0,0,0,.85-.86v-3.73L77.85,105l0,6.51a.86.86,0,0,0,.86.85h0a.86.86,0,0,0,.86-.86l0-6.63,3.56,2.76v3.86a.85.85,0,0,0,.86.85h0a.85.85,0,0,0,.85-.86v-3.71L88.38,105l0,6.48a.87.87,0,0,0,.86.86h0a.86.86,0,0,0,.85-.86l0-6.66,3.56,2.76v3.89a.86.86,0,0,0,.86.85h0a.86.86,0,0,0,.86-.86v-3.68L98.92,105l0,6.45a.85.85,0,0,0,.86.85h0a.86.86,0,0,0,.86-.86l0-6.69,3.38,2.6a.85.85,0,1,0,1-1.35Z"/><path class="cls-2" d="M91,42.26,87.3,38.82l-3.68,3.44L80,38.82l-3.67,3.44-3.67-3.44-3.67,3.44-3.67-3.44-3.68,3.44-3.67-3.44-3.67,3.44-3.67-3.44-3.67,3.44-3.6-3.38c-.07.74-.1,1.48-.1,2.22l.31,10.13,3.39,3.18L50.58,51l3.67,3.43L57.92,51l3.67,3.43L65.27,51l3.67,3.43L72.61,51l3.67,3.43L80,51l3.67,3.43L87.3,51,91,54.41,94.66,51l3.54,3.3,0-11c0-.43,0-.85,0-1.28l-3.46-3.23Z"/><polygon class="cls-3" points="46.06 53.61 46.91 54.41 47.77 53.61 47.77 41.45 46.91 42.26 46.06 41.46 46.06 53.61"/><polygon class="cls-3" points="49.7 51.81 50.58 50.98 51.41 51.76 51.41 39.6 50.58 38.82 49.7 39.65 49.7 51.81"/><polygon class="cls-3" points="56.99 51.85 57.92 50.98 58.71 51.71 58.71 39.56 57.92 38.82 56.99 39.7 56.99 51.85"/><polygon class="cls-3" points="64.28 51.9 65.27 50.98 66 51.66 66 39.51 65.27 38.82 64.28 39.74 64.28 51.9"/><polygon class="cls-3" points="71.57 51.95 72.61 50.98 73.29 51.62 73.29 39.46 72.61 38.82 71.57 39.79 71.57 51.95"/><polygon class="cls-3" points="78.86 51.99 79.95 50.98 80.58 51.57 80.58 39.42 79.95 38.82 78.86 39.84 78.86 51.99"/><polygon class="cls-3" points="86.16 52.05 87.3 50.98 87.87 51.51 87.87 39.36 87.3 38.82 86.16 39.89 86.16 52.05"/><polygon class="cls-3" points="93.45 39.95 93.45 52.11 94.66 50.98 95.16 51.45 95.16 39.3 94.66 38.82 93.45 39.95"/><polygon class="cls-3" points="53.34 53.56 54.25 54.41 55.06 53.66 55.06 41.51 54.25 42.26 53.34 41.4 53.34 53.56"/><polygon class="cls-3" points="60.64 53.52 61.59 54.41 62.36 53.7 62.36 41.55 61.59 42.26 60.64 41.37 60.64 53.52"/><polygon class="cls-3" points="67.94 53.48 68.94 54.41 69.66 53.74 69.66 41.59 68.94 42.26 67.94 41.32 67.94 53.48"/><polygon class="cls-3" points="75.24 53.44 76.28 54.41 76.96 53.77 76.96 41.62 76.28 42.26 75.24 41.29 75.24 53.44"/><polygon class="cls-3" points="83.62 54.41 84.26 53.82 84.26 41.67 83.62 42.26 82.56 41.27 82.54 41.27 82.54 53.4 83.62 54.41"/><polygon class="cls-3" points="90.97 54.41 91.56 53.87 91.56 41.72 90.97 42.26 89.91 41.27 89.84 41.27 89.84 53.35 90.97 54.41"/></svg>