<svg xmlns="http://www.w3.org/2000/svg" xmlns:xlink="http://www.w3.org/1999/xlink" version="1.1" width="256" height="256" viewBox="0 0 256 256" xml:space="preserve">

<defs>
</defs>
<g style="stroke: none; stroke-width: 0; stroke-dasharray: none; stroke-linecap: butt; stroke-linejoin: miter; stroke-miterlimit: 10; fill: none; fill-rule: nonzero; opacity: 1;" transform="translate(1.4065934065934016 1.4065934065934016) scale(2.81 2.81)" >
	<path d="M 21.247 47.02 L 0.39 76.193 c -0.979 1.37 0 3.274 1.684 3.274 h 18.744 c 1.923 0 3.728 -0.928 4.847 -2.493 L 47.08 47.02 c 0.864 -1.208 0.864 -2.833 0 -4.041 L 25.665 13.026 c -1.119 -1.565 -2.924 -2.493 -4.847 -2.493 H 2.073 c -1.684 0 -2.663 1.904 -1.684 3.274 l 20.857 29.173 C 22.111 44.188 22.111 45.812 21.247 47.02 z" style="stroke: none; stroke-width: 1; stroke-dasharray: none; stroke-linecap: butt; stroke-linejoin: miter; stroke-miterlimit: 10; fill: rgb(255,90,216); fill-rule: nonzero; opacity: 1;" transform=" matrix(1 0 0 1 0 0) " stroke-linecap="round" />
	<path d="M 63.519 47.02 L 42.662 76.193 c -0.979 1.37 0 3.274 1.684 3.274 H 63.09 c 1.923 0 3.728 -0.928 4.847 -2.493 L 89.352 47.02 c 0.864 -1.208 0.864 -2.833 0 -4.041 L 67.937 13.026 c -1.119 -1.565 -2.924 -2.493 -4.847 -2.493 H 44.346 c -1.684 0 -2.663 1.904 -1.684 3.274 l 20.857 29.173 C 64.383 44.188 64.383 45.812 63.519 47.02 z" style="stroke: none; stroke-width: 1; stroke-dasharray: none; stroke-linecap: butt; stroke-linejoin: miter; stroke-miterlimit: 10; fill: rgb(255,90,216); fill-rule: nonzero; opacity: 1;" transform=" matrix(1 0 0 1 0 0) " stroke-linecap="round" />
</g>
</svg>