<?xml version="1.0" encoding="utf-8"?>
<!-- Uploaded to: SVG Repo, www.svgrepo.com, Generator: SVG Repo Mixer Tools -->
<svg width="800px" height="800px" viewBox="-49.35 0 307.596 307.596" xmlns="http://www.w3.org/2000/svg"><defs><style>.a{fill:#f8b8b4;}.b{fill:#a98a75;}.c{fill:#ffffff;}.d{fill:#211715;}.e{fill:#f2635f;}</style></defs><path class="a" d="M174.441,293.933c5.333,1.917,11.473,1.84,14.842.739,9.154-2.994,15.011-12.394,16.609-21.892s-.282-19.2-2.157-28.643c-2.689-13.55-5.567-26.342-8.048-34.784-2.163-8.656-7.04-23.284-13.274-29.98a49.526,49.526,0,0,0-16.146-11.616c-6.41-2.624-17.516-8.617-18.649-7.891-9.905,5.78-29.2,10.941-43.851,10.883-15.373-.038-31.654-4.885-42.461-10.493-2.042-.437-11.681,4.631-18.692,7.5a49.541,49.541,0,0,0-16.147,11.616c-6.233,6.7-11.1,21.324-13.268,29.98-2.481,8.442-5.357,21.234-8.046,34.784C3.278,253.583,1.4,263.283,3,272.78s7.456,18.9,16.61,21.892c3.368,1.1,9.508,1.178,14.842-.739l29.127-9.687h81.618Z"/><path class="b" d="M41.875,81.759C40.9,52.237,48.661,30.828,60.9,19.107c7.379-7.065,24.01-16.69,42.7-16.69a67.825,67.825,0,0,1,27.122,5.2l3.806,1.543,4.537,2.674c3.615,2.13,4.9,3.956,8.625,7.545,9.342,9.013,15.835,25.23,16.869,39.752.3,4.189.984,15.088.324,22.633.332,24.929,4.928,38.882,7.3,45.75a45.653,45.653,0,0,1,2.881,15.617c.084,9.331-11.513,21.414-24.845,16.632l-95.145,2.283c-12.212.294-20.156-8.691-20.088-16.975A96.878,96.878,0,0,1,37.939,124.4c2.3-8.2,3.938-22.634,3.938-42.643"/><path class="c" d="M79.583,59.218c3.636-3.42,7.237-6.906,10.71-10.318-.585,4.947-3.7,15.417-.4,14.436,13.89-3.968,25.072-12.09,33.877-23.548,1.727,6.636,4.164,14.9,6.307,18.917,3.147,5.9,13.159,19.131,21.226,21.07a7.244,7.244,0,0,1,5.405-2.061,6.81,6.81,0,0,1,6.12,3.4c2.08,3.606,1.992,10.252.6,14.364-.988,2.911-2.608,7.366-6.512,10.56a8.088,8.088,0,0,1-6.24,1.8l-.6-.1a47.556,47.556,0,0,1-2.146,5.828c-1.587,4.306-10.355,19.408-21.448,25.3.165,2.129.441,4.235.812,6.354.58,3.32.4,6.28,5.02,7.95.3.11,13.39,6.34,13.86,6.53l1.021.412c-10.021,5.681-28.984,10.7-43.429,10.64-15.032-.038-30.932-4.672-41.733-10.12l.666-.222c.9-.3,15.5-7.13,15.8-7.24,4.62-1.67,4.42-4.63,5.02-7.95.331-1.924.591-3.7.749-5.555-5.472-2.386-10.339-6.415-14.959-11.945a55.832,55.832,0,0,1-10.593-19.986,7.947,7.947,0,0,1-6.752-1.693c-3.9-3.194-5.524-7.649-6.512-10.56-1.4-4.112-1.484-10.758.6-14.364a6.81,6.81,0,0,1,6.12-3.4,7.336,7.336,0,0,1,5.307,1.943L63.029,73.9C68.405,69.5,74.034,64.436,79.583,59.218Z"/><path class="d" d="M10.885,208.715C8.93,215.4,7.357,222.19,5.863,228.987c-1.8,8.2-3.64,16.441-4.881,24.743-1.191,7.967-1.674,16.314.758,24.109a30.886,30.886,0,0,0,11.131,16.086c6.436,4.613,14.892,4.875,22.215,2.323a2.46,2.46,0,0,0,1.676-2.953,2.423,2.423,0,0,0-2.952-1.676c-5.751,2-12.224,2.186-17.491-1.146-4.873-3.082-8.175-8.323-9.9-13.736-2.2-6.914-1.893-14.4-.849-21.491,1.168-7.932,2.921-15.805,4.623-23.635,1.576-7.249,3.232-14.5,5.316-21.62.869-2.971-3.761-4.239-4.628-1.276Z"/><path class="d" d="M193.375,209.991c1.828,6.245,3.315,12.591,4.727,18.941,1.729,7.777,3.414,15.591,4.754,23.445,2.156,12.642,2.376,28.262-8.761,37.03-5.487,4.32-12.606,4.447-19.016,2.212a2.4,2.4,0,1,0-1.276,4.629c6.538,2.279,14.145,2.369,20.277-1.086,5.774-3.252,9.8-8.847,12.212-14.908,2.9-7.267,3.007-15.342,2.089-23.013-1.019-8.512-2.92-16.941-4.718-25.316-1.671-7.782-3.423-15.568-5.659-23.21-.866-2.959-5.5-1.7-4.629,1.276Z"/><path class="d" d="M15.513,209.991a102.752,102.752,0,0,1,7.3-20.581,34.779,34.779,0,0,1,5.63-8.632,47.97,47.97,0,0,1,9.583-7.871,97.008,97.008,0,0,1,11.219-5.443c3.2-1.448,6.362-3.028,9.665-4.223.533-.193,1.071-.378,1.621-.517a3.482,3.482,0,0,0,.357-.084c.338-.125-.012.18-.17.008a2.023,2.023,0,0,0,.266-.018c.421.053-.576-.151-.573-.14.043.176,1.11.557,1.282.642q.662.322,1.329.633,1.381.642,2.786,1.235a103.866,103.866,0,0,0,12.488,4.392,92.917,92.917,0,0,0,27.685,3.728,104.325,104.325,0,0,0,25.037-4.087,96.608,96.608,0,0,0,11.278-3.91c1.6-.674,3.185-1.387,4.726-2.189q.532-.276,1.057-.567c.321-.178,1.3-.534.29-.23.073-.022-.684.08-.443.069.323-.013-.077.007-.064-.017-.062.112-.349-.114-.014.015.113.043.243.062.36.095a50.028,50.028,0,0,1,7.5,3.25c3.2,1.516,6.438,2.951,9.663,4.417,6.916,3.144,13.816,8.091,17.965,14.563,4.07,6.348,6.661,13.663,8.775,20.86q.672,2.289,1.255,4.6c.752,2.994,5.383,1.725,4.628-1.276a108.39,108.39,0,0,0-7.781-21.728,39.252,39.252,0,0,0-6.1-9.311,52.36,52.36,0,0,0-9.963-8.366,84.222,84.222,0,0,0-10.9-5.5c-3.241-1.5-6.441-3.092-9.708-4.535-2.007-.887-4.916-2.6-7.132-1.486a87.214,87.214,0,0,1-9.516,4.319,105.848,105.848,0,0,1-24.954,5.8,83.564,83.564,0,0,1-27.265-1.85,103.978,103.978,0,0,1-13.316-3.976c-1.944-.727-3.861-1.516-5.745-2.387-1.476-.682-3.154-1.956-4.827-1.856-3.032.182-6.113,1.929-8.822,3.142-3.777,1.692-7.61,3.3-11.353,5.067-7.489,3.526-14.7,9.027-19.211,16.055-4.252,6.628-6.993,14.333-9.212,21.848q-.7,2.367-1.3,4.761c-.754,3,3.874,4.275,4.628,1.276Z"/><path class="d" d="M63.338,162.721c1.4-.489,2.743-1.192,4.084-1.806q3.26-1.493,6.509-3c1.7-.789,3.4-1.582,5.108-2.366.176-.081.355-.158.53-.242.111-.054.361-.169-.159.064-.657.295.055-.011.226-.079.348-.14.7-.282,1.036-.445a8.282,8.282,0,0,0,3.722-3.418,13.819,13.819,0,0,0,1.279-4.585c.369-2.389.78-4.763,1-7.172a2.417,2.417,0,0,0-2.4-2.4,2.45,2.45,0,0,0-2.4,2.4c-.171,1.9-.49,3.769-.788,5.652a16.5,16.5,0,0,1-.752,3.543c-.141.354.154-.295-.03.04q-.108.2-.222.393c-.027.047-.3.424-.147.228.143-.18-.116.117-.119.12a4.983,4.983,0,0,1-1.587,1.068c-.513.237-1.049.431-1.565.668-3.625,1.665-7.238,3.36-10.863,5.025-.941.432-1.881.864-2.825,1.288-.3.135-.6.267-.9.4-.638.283.512-.183-.011,0a2.461,2.461,0,0,0-1.676,2.953,2.422,2.422,0,0,0,2.952,1.676Z"/><path class="d" d="M124.125,139.4c.2,2.243.528,4.467.895,6.689a26.932,26.932,0,0,0,.667,3.58,8.139,8.139,0,0,0,2.235,3.678,9.286,9.286,0,0,0,2.013,1.4c.463.233.945.435,1.428.622,1.012.392-.516-.259-.138-.07,3.241,1.618,6.56,3.095,9.834,4.644,1.486.7,2.962,1.439,4.478,2.075a2.415,2.415,0,0,0,2.953-1.676,2.463,2.463,0,0,0-1.677-2.953c1.225.513-.2-.113-.487-.249q-1.052-.494-2.1-.99-2.843-1.343-5.682-2.689c-1.465-.694-2.929-1.39-4.4-2.075-.5-.234-1.018-.425-1.519-.653a8.749,8.749,0,0,1-.885-.475c-.034-.02-.482-.325-.289-.181.159.12-.144-.125-.138-.12-.074-.066-.653-.709-.378-.347a5.59,5.59,0,0,1-.487-.815c-.125-.244.02.06.034.1-.075-.195-.141-.394-.2-.594-.08-.272-.146-.548-.2-.825-.137-.651-.225-1.312-.325-1.97-.307-2.034-.645-4.048-.831-6.1a2.463,2.463,0,0,0-2.4-2.4,2.418,2.418,0,0,0-2.4,2.4Z"/><path class="d" d="M131.359,5.3A72.143,72.143,0,0,0,100.965.08,68.77,68.77,0,0,0,71.01,8.929a53.7,53.7,0,0,0-17.489,15.05,68.391,68.391,0,0,0-10.4,22.5c-3.13,11.446-4.024,23.457-3.649,35.283.1,3.081,4.9,3.095,4.8,0-.569-17.939,1.639-37.337,11.591-52.745A46.37,46.37,0,0,1,70.457,14.832,64.866,64.866,0,0,1,97.5,5.151a67.667,67.667,0,0,1,32.579,4.775,2.416,2.416,0,0,0,2.952-1.676A2.459,2.459,0,0,0,131.359,5.3Z"/><path class="d" d="M167.282,81.759a123.276,123.276,0,0,0,.072-15.885,108.9,108.9,0,0,0-1.31-14.025c-1.93-10.936-6.32-21.824-13.322-30.507a85.514,85.514,0,0,0-6-6.321,32.925,32.925,0,0,0-6.443-5.265c-2.657-1.59-5.073,2.558-2.422,4.145a25.957,25.957,0,0,1,5.094,4.135c1.792,1.8,3.669,3.538,5.339,5.456a52.892,52.892,0,0,1,8,12.881,69.9,69.9,0,0,1,4.834,15.176A88.367,88.367,0,0,1,162.487,64.5a128.068,128.068,0,0,1,0,17.257,2.419,2.419,0,0,0,2.4,2.4,2.45,2.45,0,0,0,2.4-2.4Z"/><path class="d" d="M39.477,81.758c-.009,13.008-.273,26.424-3.136,39.146-.57,2.531-1.306,5.014-1.811,7.561-.7,3.542-1.221,7.128-1.581,10.721a33.238,33.238,0,0,0-.09,8.849,17.726,17.726,0,0,0,3.228,7.422,22.829,22.829,0,0,0,18.986,8.984c3.085-.049,3.095-4.849,0-4.8-5.618.089-11.216-1.985-14.752-6.488A13.894,13.894,0,0,1,37.51,146.9c-.4-2.2,0-5.4.258-7.9.331-3.227.82-6.441,1.464-9.62.491-2.423,1.2-4.786,1.737-7.195a122.459,122.459,0,0,0,2.285-15.566c.767-8.26,1.017-16.563,1.023-24.856,0-3.088-4.8-3.093-4.8,0Z"/><path class="d" d="M162.482,81.759c.191,13.238,1.526,26.6,5.154,39.373,1.307,4.6,3.153,9.056,4.16,13.735a38.069,38.069,0,0,1,.785,5.793c.053.906.1,1.818.081,2.726a7.865,7.865,0,0,1-.157,1.615,16.021,16.021,0,0,1-3.348,6.932,17.913,17.913,0,0,1-7.812,5.625,15.7,15.7,0,0,1-10.489-.114c-2.924-1.016-4.181,3.619-1.276,4.628a20.733,20.733,0,0,0,20.164-3.944,22.288,22.288,0,0,0,5.826-7.377,19.088,19.088,0,0,0,1.845-9.433,48.867,48.867,0,0,0-2.336-12.7c-.619-1.939-1.315-3.851-1.924-5.793A117.635,117.635,0,0,1,169.6,108.2a164.238,164.238,0,0,1-2.314-26.438c-.045-3.086-4.845-3.095-4.8,0Z"/><path class="d" d="M59.173,77.96a10.386,10.386,0,0,0-11.433-1.6,10.037,10.037,0,0,0-5.093,6.969,26.259,26.259,0,0,0,4.042,20.413c2.861,4.151,6.915,7.13,12.154,6.415a2.416,2.416,0,0,0,1.676-2.953,2.465,2.465,0,0,0-2.952-1.676c-3.591.49-6.405-3.365-7.879-6.084a22.631,22.631,0,0,1-2.777-8.9,19.7,19.7,0,0,1,.214-5.258,12,12,0,0,1,.583-2.142,6.765,6.765,0,0,1,.5-.96c.036-.058.411-.6.247-.387a4.8,4.8,0,0,1,2.936-1.613,5.229,5.229,0,0,1,4.391,1.172c2.286,2.068,5.691-1.317,3.394-3.394Z"/><path class="d" d="M153.1,81.354a5.319,5.319,0,0,1,7.388.519c-.325-.4.133.223.185.309a6.877,6.877,0,0,1,.5.96,11.65,11.65,0,0,1,.548,1.969,19.538,19.538,0,0,1,.249,5.431,22.61,22.61,0,0,1-2.694,8.742c-1.471,2.767-4.313,6.739-7.962,6.241a2.483,2.483,0,0,0-2.952,1.676,2.418,2.418,0,0,0,1.676,2.953c8.538,1.165,13.5-7.155,15.753-14.187a24.782,24.782,0,0,0,.717-11.256,11.224,11.224,0,0,0-4.359-7.772,10.29,10.29,0,0,0-12.441,1.021c-2.3,2.076,1.107,5.463,3.394,3.394Z"/><path class="d" d="M148.65,103.653a45.342,45.342,0,0,1-1.7,5.921c-.238.675-.618,1.7-.808,2.148-.171.405-.362.8-.528,1.206-.039.1-.268.68-.108.292s-.069.154-.111.244c-.091.2-.181.395-.275.591q-.348.726-.726,1.436c-.6,1.136-1.243,2.25-1.915,3.346A58.7,58.7,0,0,1,129.9,133.725a23.034,23.034,0,0,1-9.3,4.808c-3.008.7-1.735,5.324,1.276,4.629,7.143-1.65,13.087-6.871,17.747-12.294a64.156,64.156,0,0,0,9.884-14.91c.246-.543.463-1.1.7-1.647-.318.753.411-.938.431-.986q.267-.646.515-1.3a46.507,46.507,0,0,0,2.127-7.1,2.459,2.459,0,0,0-1.676-2.953,2.423,2.423,0,0,0-2.952,1.677Z"/><path class="d" d="M55.468,104.762A58.948,58.948,0,0,0,63.712,124.2c4.238,6.4,9.821,12.385,16.572,16.161A32.825,32.825,0,0,0,91.49,144.2a2.479,2.479,0,0,0,2.952-1.677,2.418,2.418,0,0,0-1.676-2.952c-13.931-2.059-24.354-14.14-29.624-26.529a56.018,56.018,0,0,1-3.045-9.552c-.683-3.012-5.312-1.737-4.629,1.276Z"/><path class="d" d="M95.718,119.328a19.14,19.14,0,0,0,9.219,2.135,15,15,0,0,0,9.305-2.745,2.413,2.413,0,0,0,0-3.394,2.46,2.46,0,0,0-3.394,0c.728-.568.164-.134-.023-.014s-.376.228-.57.33c-.1.052-.2.1-.306.152-.389.2.1-.043.1-.032a4.811,4.811,0,0,1-.786.285,13.825,13.825,0,0,1-2.2.5c.355-.053-.063,0-.208.018q-.324.031-.648.053c-.521.034-1.042.047-1.564.044-.467,0-.934-.019-1.4-.051-.214-.014-.428-.031-.641-.053-.025,0-.8-.111-.308-.033a15.836,15.836,0,0,1-2.055-.457c-.288-.086-.569-.189-.853-.286-.613-.21.354.183-.2-.078-.353-.166-.7-.339-1.045-.521a2.451,2.451,0,0,0-3.283.861,2.425,2.425,0,0,0,.861,3.283Z"/><path class="d" d="M103.715,97.612a43.433,43.433,0,0,1,1.018,4.657l-.086-.638a2.823,2.823,0,0,1,.017.643l.086-.638a1.506,1.506,0,0,1-.071.289l.242-.573a1.121,1.121,0,0,1-.1.186l.376-.486a.987.987,0,0,1-.153.15l.486-.375a3.167,3.167,0,0,1-.369.2l.574-.242a2.655,2.655,0,0,1-.622.181l.638-.085a2.535,2.535,0,0,1-.584,0l.638.085c-.22-.03-.436-.084-.656-.113a1.812,1.812,0,0,0-.957-.043,1.774,1.774,0,0,0-.892.285,2.4,2.4,0,0,0-.861,3.283,2.3,2.3,0,0,0,1.434,1.1c.5.068.989.2,1.5.218a4.8,4.8,0,0,0,2.211-.526,3.192,3.192,0,0,0,1.77-2.105,5.285,5.285,0,0,0-.023-2.267c-.253-1.5-.6-2.987-.986-4.459a2.4,2.4,0,0,0-4.628,1.276Z"/><path class="d" d="M79.1,84.421c-.778,2.527-.271,8.341,4.517,8.836,6.328-.038,6.665-7.067,4.534-10.372C86.41,80.179,81.282,79.054,79.1,84.421Z"/><path class="d" d="M129.778,84.421c.778,2.527.271,8.341-4.517,8.836-6.328-.039-6.665-7.067-4.535-10.372C122.47,80.179,127.6,79.054,129.778,84.421Z"/><path class="d" d="M121.606,41c1.039,3.933,2.146,7.854,3.459,11.706a45.005,45.005,0,0,0,3.779,8.679A64.762,64.762,0,0,0,141.06,76.316a25.5,25.5,0,0,0,9,5.608c2.951.938,4.214-3.7,1.276-4.628-5.2-1.653-9.77-6.856-13.247-11.117a45.957,45.957,0,0,1-8.075-13.817c-1.463-4.148-2.661-8.389-3.784-12.639-.788-2.984-5.419-1.718-4.628,1.276Z"/><path class="d" d="M122.033,38.148a66.75,66.75,0,0,1-18.21,16.565A59.129,59.129,0,0,1,92.856,59.88q-1.4.49-2.829.917a3.9,3.9,0,0,0-.768.224c-.285.185.072-.041.227-.021a2.143,2.143,0,0,1,1.3.683c.3.327-.069.245.017-.132.048-.209.024.132.029.19-.01-.131-.023-.267-.022-.4a19.833,19.833,0,0,1,.111-2.038c.343-3.181,1.349-6.957,1.776-10.4.269-2.166-2.743-3.026-4.1-1.7-8.8,8.635-17.727,17.176-27.264,25a2.417,2.417,0,0,0,0,3.394,2.454,2.454,0,0,0,3.394,0c9.537-7.82,18.469-16.36,27.264-25l-4.1-1.7c-.06.488-.031.161-.009.069-.05.206-.065.427-.1.636-.067.41-.14.819-.215,1.227-.164.892-.34,1.781-.511,2.671-.363,1.88-.71,3.764-.928,5.667-.325,2.845.153,7.352,4.19,6.527a37.989,37.989,0,0,0,6.2-2.078,67.967,67.967,0,0,0,6.552-2.979,65.626,65.626,0,0,0,11.438-7.688,72.174,72.174,0,0,0,10.915-11.41,2.48,2.48,0,0,0,0-3.394,2.415,2.415,0,0,0-3.394,0Z"/><path class="e" d="M106.533,208.325a2.723,2.723,0,0,1-4.178,0c-5.6-6.7-13.809-11.544-23.465-14.181-6.532-1.784-17.16-1.424-22.547.892-9.544,4.1-17.06,11.75-19.891,22.655a61.747,61.747,0,0,0,1.311,33.18,71.95,71.95,0,0,0,15.553,26.316c11.656,13.077,25.954,21.156,41.463,26.431a29.886,29.886,0,0,0,19.234,0c15.535-5.274,29.9-13.354,41.559-26.435a71.95,71.95,0,0,0,15.553-26.316,61.738,61.738,0,0,0,1.311-33.18c-2.831-10.9-10.347-18.552-19.89-22.655-5.388-2.316-16.016-2.676-22.548-.892C120.342,196.781,112.135,201.621,106.533,208.325Z"/><path class="d" d="M104.836,206.628c-.7.747-1.307-.626-1.881-1.252a38.464,38.464,0,0,0-3.5-3.36,49.042,49.042,0,0,0-28.676-11.37c-6.381-.218-12.687.63-18.381,3.622A36.593,36.593,0,0,0,38.29,207.277c-3.675,5.94-5.217,12.829-5.733,19.727a63.934,63.934,0,0,0,2.266,22.515c4.1,14.025,12.7,26.391,23.506,36.1a92.887,92.887,0,0,0,17.935,12.6c3.185,1.72,6.462,3.249,9.8,4.65a75.127,75.127,0,0,0,10.274,3.716,32.222,32.222,0,0,0,12.224.733,48.151,48.151,0,0,0,11.015-3.167A106.578,106.578,0,0,0,139,294.433c12.091-7.8,22.818-18.633,29.558-31.421,6.994-13.269,9.734-28.584,6.786-43.378a36.508,36.508,0,0,0-8.873-17.778,34.837,34.837,0,0,0-15.606-9.931c-13.128-3.616-27.873.01-38.7,7.954a42.079,42.079,0,0,0-7.322,6.749,2.465,2.465,0,0,0,0,3.394,2.42,2.42,0,0,0,3.394,0,42.842,42.842,0,0,1,33.659-14.562,32.69,32.69,0,0,1,8.426,1.307,28.793,28.793,0,0,1,7.393,3.829,30.653,30.653,0,0,1,10.959,13.352c2.558,6.1,3.193,13.011,3.014,19.563a60.316,60.316,0,0,1-4.333,20.718c-5,12.611-14.113,23.585-24.785,31.844A93.283,93.283,0,0,1,125.3,296.525c-3.026,1.43-6.12,2.7-9.265,3.847A34.23,34.23,0,0,1,105.3,302.8c-7.114.215-13.964-2.7-20.329-5.6a95.905,95.905,0,0,1-17.69-10.385c-10.737-8.025-19.939-18.866-25.2-31.254A60.118,60.118,0,0,1,37.264,235c-.331-6.62.191-13.506,2.464-19.777a30.325,30.325,0,0,1,10.305-13.815,32.988,32.988,0,0,1,7.452-4.267,27.239,27.239,0,0,1,8.017-1.6,45.638,45.638,0,0,1,9.186.2,39.95,39.95,0,0,1,9.1,2.529,41.673,41.673,0,0,1,15.9,10.634c1.164,1.282,2.158,2.436,3.977,2.713a5.162,5.162,0,0,0,4.567-1.6C110.349,207.776,106.961,204.376,104.836,206.628Z"/><path class="c" d="M165.328,259.352c-2.635-2.321-6.769-5.791-10.213-9.312-.958-.981-1.133-3.458.029-5.148,1.089-1.584,3.765-1.615,4.851-1.16a48.939,48.939,0,0,1,14.8,10.3c7.512,8.243,1.886,20.079-4.983,29.372-3.547,4.8-8.869,10.747-13.564,11.164a10.911,10.911,0,0,1-11.164-6.782l.167-2.539c-3.044-3.442-6.946-8.079-8.014-10.362a4.977,4.977,0,0,1,.653-4.488c1.249-1.6,3.02-1.451,4.407-1.284-1.228-1.064-2.431-2.189-3.6-3.4a5.065,5.065,0,0,1-1.07-4.226,5.147,5.147,0,0,1,1.918-2.686,5.7,5.7,0,0,1,4.866-.567l-.16-.124c-1.74-1.35-3.194-3.009-3.218-5.211a4.439,4.439,0,0,1,5-4.416c2.6.3,5.2,2.116,7.318,3.647,2.885,2.082,9.176,5.916,13.147,8.475Z"/><path class="d" d="M176.494,252.334a59.011,59.011,0,0,0-7.554-6.318A45.313,45.313,0,0,0,164.6,243.3a19.314,19.314,0,0,0-4.439-2.029,6.477,6.477,0,0,0-7.746,3.747,7.227,7.227,0,0,0-.155,4.735c.555,1.67,1.955,2.8,3.189,3.982,2.648,2.528,5.437,4.9,8.185,7.313a2.457,2.457,0,0,0,3.394,0,2.422,2.422,0,0,0,0-3.394c-1.99-1.75-4-3.471-5.967-5.253-1.1-1-2.186-2.013-3.245-3.055-.253-.249-.5-.507-.753-.753,0,0-.425-.395-.186-.168.186.177-.044-.029-.047-.1.018.352-.044-.177-.074-.316.059.27-.02-.408-.015-.55a3.7,3.7,0,0,1,.252-.98,2.588,2.588,0,0,1,.227-.374c-.062.082-.155.156.014.042.247-.167,0,.011-.017.021.124-.058.307-.146.069-.066a5.645,5.645,0,0,1,.809-.217c.288-.052-.006.008-.052.01.114-.006.229-.016.344-.013s.708.037.43,0,.291.078.4.111c-.3-.09.406.177.509.224q.468.213.929.439,1,.492,1.973,1.04c1.241.7,2.446,1.46,3.616,2.271a51.652,51.652,0,0,1,6.86,5.762c2.2,2.175,5.594-1.217,3.394-3.394Z"/><path class="d" d="M167.712,258.537c-3.171-2.066-6.406-4.03-9.586-6.082-3.2-2.065-6.224-4.751-9.9-5.933-4-1.288-8.68.642-9.467,5.073-.867,4.881,3.163,7.729,6.536,10.346l13.723,10.65a2.479,2.479,0,0,0,3.394,0,2.415,2.415,0,0,0,0-3.394l-10.39-8.064-5.1-3.955c-1.21-.939-2.734-1.915-3.328-3.4a2.121,2.121,0,0,1,.734-2.594c1.086-.7,2.519-.155,3.578.347,2.83,1.34,5.316,3.472,7.945,5.165,3.131,2.015,6.314,3.949,9.433,5.983,2.595,1.692,5-2.463,2.423-4.145Z"/><path class="d" d="M144.172,255.747c-3.4-.473-6.7.573-8.346,3.809a6.852,6.852,0,0,0-.39,5.056,9.538,9.538,0,0,0,2.931,4.161c5.07,4.863,10.983,8.693,16.846,12.512,2.6,1.691,5-2.464,2.423-4.145a125.5,125.5,0,0,1-13.349-9.474q-1.586-1.357-3.076-2.822c-.721-.71-1.175-1.05-1.28-2.118a2.029,2.029,0,0,1,.9-1.92c-.268.207.368-.181.434-.211a4.759,4.759,0,0,0,.451-.157,2.894,2.894,0,0,1,1.18-.063,2.481,2.481,0,0,0,2.952-1.676,2.417,2.417,0,0,0-1.676-2.952Z"/><path class="d" d="M142.086,266.685c-3.48-.367-6.564,1.428-7.328,4.981a6.845,6.845,0,0,0,.53,4.675,18.607,18.607,0,0,0,1.536,2.39A126.046,126.046,0,0,0,146.314,290c2.094,2.28,5.481-1.121,3.394-3.394q-1.854-2.017-3.658-4.082c-1.421-1.629-3.041-3.541-4.231-5.076-.389-.5-1.086-1.446-1.557-2.153-.212-.32-.419-.643-.61-.977-.073-.126-.136-.28-.219-.4-.1-.2-.087-.166.031.108a2.269,2.269,0,0,1-.1-.354,2.894,2.894,0,0,1,.532-1.925c.026-.026.436-.285.185-.183.081-.033.757-.192.335-.127a6.625,6.625,0,0,1,1.67.047,2.415,2.415,0,0,0,2.4-2.4,2.455,2.455,0,0,0-2.4-2.4Z"/><path class="d" d="M173.1,255.728c5.994,6.749,1.353,16.332-2.78,22.741a51.475,51.475,0,0,1-8.7,10.594c-2.263,2.022-4.492,3.346-7.462,3.074-.109-.01-.457-.068.044.01-.211-.033-.421-.07-.63-.113q-.5-.1-1-.25a6.316,6.316,0,0,1-1.859-.814,9.172,9.172,0,0,1-3.558-4.4,2.415,2.415,0,0,0-3.284-.861,2.462,2.462,0,0,0-.861,3.283,13.035,13.035,0,0,0,9.281,7.666,12.429,12.429,0,0,0,9.983-2.036c4.481-3.1,7.975-7.568,11.041-12.016,2.962-4.3,5.637-9.071,6.828-14.194,1.351-5.809.367-11.556-3.652-16.082-2.056-2.314-5.441,1.09-3.394,3.394Z"/><path class="c" d="M54.229,248.541a3.7,3.7,0,0,0-.485-3.649c-1.089-1.584-3.765-1.615-4.851-1.16a48.921,48.921,0,0,0-14.8,10.3c-7.513,8.243-1.887,20.079,4.982,29.372,3.547,4.8,8.869,10.747,13.564,11.164A10.911,10.911,0,0,0,63.8,287.785l-.167-2.539c3.044-3.442,6.946-8.079,8.014-10.362A4.977,4.977,0,0,0,71,270.4c-1.249-1.6-3.02-1.451-4.407-1.284,1.228-1.064,2.431-2.189,3.6-3.4a5.062,5.062,0,0,0,1.07-4.226,5.147,5.147,0,0,0-1.918-2.686,5.7,5.7,0,0,0-4.866-.567l.16-.124c1.74-1.35,3.194-3.009,3.218-5.211a4.439,4.439,0,0,0-5-4.416c-2.6.3-5.2,2.116-7.319,3.647-2.885,2.082-9.176,5.916-13.147,8.475l1.172-1.257c2.277-2.343,6.792-6.84,10.33-10.326A1.783,1.783,0,0,0,54.229,248.541Z"/><path class="d" d="M35.789,255.728c3.951-3.909,8.634-7.629,13.837-9.717.348-.14.115-.039.049-.019.082-.025.163-.047.245-.07s.181-.039.272-.058c-.041.009-.416.029-.129.027.223,0,.447,0,.67,0,.272,0,0-.019-.054-.026a3.753,3.753,0,0,1,.469.1c.155.04.3.091.457.142-.055-.019-.267-.121-.034.008.04.023.107.019.136.056a2.646,2.646,0,0,1,.4,1.044c.058.452-.094-.064-.052.331-.01-.095,0-.223.032-.091s-.032.029.1-.119c-.489.542-1.048,1.034-1.567,1.547q-1.461,1.444-2.918,2.9c-1.959,1.95-3.917,3.9-5.845,5.883-2.155,2.216,1.236,5.613,3.4,3.394,2-2.06,4.04-4.088,6.077-6.116q1.737-1.726,3.48-3.448a5.709,5.709,0,0,0,2.1-4.277,6.212,6.212,0,0,0-6.52-6.13,10.283,10.283,0,0,0-4.454,1.373,41.921,41.921,0,0,0-4.549,2.589,57.345,57.345,0,0,0-8.993,7.294c-2.2,2.176,1.2,5.57,3.394,3.394Z"/><path class="d" d="M43.6,262.682c2.755-1.8,5.559-3.514,8.333-5.279,2.611-1.662,5.082-3.589,7.742-5.162,1.522-.9,5.789-2.707,5.783.662,0,1.39-1.223,2.461-2.211,3.272-1.633,1.341-3.34,2.6-5.009,3.893L46.474,269.2a2.412,2.412,0,0,0,0,3.394,2.461,2.461,0,0,0,3.394,0l11.959-9.281c3.4-2.64,8.06-5.24,8.411-10.024a6.894,6.894,0,0,0-8.022-7.113c-3.891.583-6.954,3.324-10.129,5.42-3.6,2.374-7.3,4.59-10.91,6.944-2.579,1.681-.176,5.838,2.422,4.145Z"/><path class="d" d="M65.992,260.375a2.922,2.922,0,0,1,2.1.467,2.166,2.166,0,0,1,.866,1.726c-.057,1.162-.528,1.53-1.284,2.276q-1.488,1.466-3.077,2.822a125,125,0,0,1-13.348,9.474c-2.579,1.68-.176,5.837,2.422,4.145,5.864-3.819,11.776-7.649,16.846-12.512a9.475,9.475,0,0,0,2.931-4.161,6.872,6.872,0,0,0-.389-5.056c-1.643-3.237-4.95-4.282-8.347-3.809A2.415,2.415,0,0,0,63.04,258.7a2.463,2.463,0,0,0,2.952,1.676Z"/><path class="d" d="M66.8,271.485a6.673,6.673,0,0,1,1.67-.047c-.416-.064.319.12.335.127-.327-.14.233.244.08.077a1.843,1.843,0,0,1,.552,1.029c.166.627.041-.185.086.459,0,.014-.028.808.026.421a3.01,3.01,0,0,1-.127.476c.118-.274.129-.31.031-.108-.085.122-.145.27-.219.4-.174.306-.363.6-.557.9-.486.737-1.2,1.7-1.61,2.233-2.308,2.978-5.191,6.221-7.888,9.158-2.087,2.272,1.3,5.675,3.394,3.394a126.2,126.2,0,0,0,9.489-11.269,18.607,18.607,0,0,0,1.536-2.39,6.846,6.846,0,0,0,.53-4.675c-.764-3.553-3.847-5.348-7.328-4.981a2.471,2.471,0,0,0-2.4,2.4,2.416,2.416,0,0,0,2.4,2.4Z"/><path class="d" d="M32.4,252.334a16.967,16.967,0,0,0-4,14.276c.776,5.127,3.243,9.965,6.024,14.282,2.907,4.51,6.3,9.061,10.5,12.453,2.991,2.418,6.308,4.021,10.205,3.545A13.192,13.192,0,0,0,65.875,289a2.479,2.479,0,0,0-.861-3.283,2.417,2.417,0,0,0-3.284.861,8.556,8.556,0,0,1-6.519,5.481c-.174.034-.348.064-.523.092.085-.014.494-.052.044-.01-.242.022-.483.043-.725.053a8.107,8.107,0,0,1-1.266-.015,9.843,9.843,0,0,1-4.311-2.131A43.594,43.594,0,0,1,39.6,280.017a40.17,40.17,0,0,1-6.046-12.15c-1.137-4.276-.8-8.72,2.237-12.139,2.045-2.3-1.338-5.709-3.394-3.394Z"/></svg>