<?xml version="1.0" encoding="iso-8859-1"?>
<!-- Uploaded to: SVG Repo, www.svgrepo.com, Generator: SVG Repo Mixer Tools -->
<!DOCTYPE svg PUBLIC "-//W3C//DTD SVG 1.1//EN" "http://www.w3.org/Graphics/SVG/1.1/DTD/svg11.dtd">
<svg fill="#000000" version="1.1" id="Capa_1" xmlns="http://www.w3.org/2000/svg" xmlns:xlink="http://www.w3.org/1999/xlink" 
	 width="800px" height="800px" viewBox="0 0 573.838 573.838"
	 xml:space="preserve">
<g>
	<g id="Capa_1_5_">
		<g>
			<path d="M87.048,248.813c-2.335,0.268-4.635,0.294-6.947,0.763c-2.265,0.459-4.645,0.649-6.717,1.729
				c-1.971,1.03-3.74,2.374-5.216,4.022c-0.778,0.868-1.548,1.717-2.257,2.641c-0.427,0.558-0.548,0.947-0.812,1.582
				c-0.218,0.52-0.642,0.964-0.656,1.548c1.089,0.228,2.505,0.483,3.599,0.262c0.521-0.105,1.111,0.063,1.657,0.032
				c0.58-0.033,1.156,0.048,1.734,0.014c2.435-0.139,4.801-0.294,7.187-0.778c4.711-0.955,9.246-2.417,13.487-4.631
				c1.687-0.88,3.38-1.611,4.943-2.701c1.53-1.067,3.206-2.049,4.8-3.039c-6.413-7.137-17.267-10.163-26.5-7.071
				c-0.57,0.19-1.106,0.412-1.628,0.65c-0.287-0.036-0.606-0.008-0.991,0.144c-1.676,0.665-3.304,2.067-4.683,3.187
				c-3.231,2.62-6.076,5.885-8.502,9.217c-1.22,1.672-2.268,3.444-3.224,5.263c-0.099-0.147-0.2-0.294-0.3-0.439v-53.309
				c3.496-5.032,6.461-11.284,6.461-20.943c0-9.659-2.964-15.907-6.46-20.94v-53.282c-0.007,0.001-0.016,0.002-0.022,0.003
				c-1.56,0.235-3.147,0.386-4.759,0.454c-0.635,0.028-1.267,0.063-1.909,0.063c-0.882,0-1.775-0.033-2.673-0.094
				c-0.042,0.051-0.082,0.102-0.123,0.153c-4.855,6.04-10.359,12.884-10.359,26.048c0,0.182,0.012,0.349,0.015,0.528
				c-1.235-1.009-2.632-1.852-4.116-2.345c-1.15-0.383-2.298-0.894-3.432-1.338c-1.184-0.465-2.436-0.529-3.68-0.725
				c-2.419-0.379-4.81-0.234-7.229-0.053c-1.156,0.086-2.325,0.421-3.459,0.648c-1.117,0.224-2.131,0.71-3.238,0.932
				c-2.212,0.443-4.611,1.621-6.438,2.889c-0.329,0.229-0.717,0.341-0.521,0.503c-0.031,0.001-0.062,0.002-0.093,0.003
				c2.188,3.377,5.029,6.321,8.079,8.938c3.848,3.304,8.287,5.857,13.026,7.718c1.11,0.436,2.188,0.847,3.306,1.259
				c1.241,0.457,2.52,0.746,3.792,1.108c1.065,0.304,2.459,0.761,3.571,0.778c1.217,0.017,2.456,0.108,3.646,0.39
				c-0.522-2.48-0.655-4.981-1.931-7.25c-0.637-1.133-1.196-2.157-1.981-3.213c-0.821-1.107-1.845-1.948-2.961-2.77
				c-4.018-2.956-9.07-3.862-13.729-5.419c-1.663-0.555-3.423-0.939-5.22-1.199c1.181-0.133,2.369-0.205,3.554-0.188
				c4.761,0.068,9.664,0.261,14.073,2.245c0.994,0.447,1.92,0.953,2.809,1.509c0.101,0.079,0.202,0.158,0.303,0.238
				c0.882,0.702,1.715,1.464,2.528,2.247c1.603,8.528,5.843,13.829,9.688,18.611c1.619,2.013,3.156,3.935,4.484,6.019
				c0.089,0.523,0.16,1.054,0.221,1.587v18.88v10.25c-1.375,2.218-2.997,4.241-4.705,6.366c-4.855,6.04-10.358,12.883-10.358,26.046
				c0,13.163,5.503,20.007,10.36,26.046c1.708,2.124,3.329,4.146,4.705,6.365v30.371c-1.376,2.219-2.997,4.24-4.705,6.365
				c-4.754,5.912-10.115,12.613-10.337,25.242c-1.237-1.01-2.637-1.855-4.123-2.352c-1.15-0.383-2.298-0.895-3.432-1.338
				c-1.184-0.465-2.436-0.529-3.68-0.725c-2.419-0.379-4.81-0.234-7.229-0.053c-1.156,0.086-2.325,0.42-3.459,0.648
				c-1.116,0.225-2.131,0.709-3.238,0.932c-2.212,0.445-4.612,1.621-6.438,2.891c-0.329,0.229-0.717,0.34-0.521,0.502
				c-0.031,0.002-0.062,0.004-0.093,0.004c2.187,3.377,5.028,6.32,8.079,8.939c3.848,3.303,8.287,5.857,13.026,7.717
				c1.11,0.438,2.188,0.848,3.306,1.26c1.241,0.457,2.52,0.746,3.792,1.107c1.065,0.305,2.459,0.762,3.57,0.779
				c1.217,0.016,2.457,0.107,3.646,0.389c-0.522-2.48-0.655-4.98-1.931-7.25c-0.637-1.133-1.196-2.156-1.982-3.213
				c-0.821-1.105-1.844-1.947-2.96-2.77c-4.018-2.955-9.07-3.861-13.729-5.42c-1.663-0.555-3.423-0.939-5.22-1.197
				c1.181-0.133,2.369-0.205,3.554-0.188c4.761,0.066,9.664,0.26,14.073,2.244c0.994,0.447,1.921,0.953,2.811,1.51
				c0.1,0.08,0.202,0.158,0.301,0.236c0.787,0.625,1.538,1.297,2.269,1.99c1.347,9.473,5.869,15.127,9.947,20.199
				c1.708,2.125,3.329,4.146,4.705,6.365v19.795v10.574c-1.375,2.219-2.995,4.24-4.705,6.365
				c-4.855,6.039-10.36,12.883-10.36,26.045s5.503,20.008,10.36,26.045c1.708,2.125,3.329,4.146,4.705,6.365v5.324
				c0.145-0.004,0.29-0.014,0.434-0.016c0.215-0.004,0.43-0.023,0.644-0.023c0.501,0,0.994,0.031,1.49,0.049
				c0.678,0.023,1.353,0.051,2.022,0.104c0.064,0.006,0.128,0.014,0.191,0.02c1.867,0.156,3.7,0.422,5.487,0.803
				c-0.725-3.098-1.804-5.752-3.073-8.111c1.043-2.213,2.268-4.367,3.604-6.488c1.732-2.756,3.886-5.166,6.135-7.525
				c1.248-1.307,2.574-2.57,3.992-3.701c0.026-0.021,0.053-0.041,0.078-0.061c1.734-0.738,3.616-1.197,5.476-1.574
				c2.399-0.486,4.895-0.43,7.318-0.107c1.311,0.172,2.628,0.299,3.912,0.609c1.266,0.309,2.506,0.689,3.783,0.957
				c0.189,0.041,0.382,0.125,0.571,0.217c-2.113-0.172-4.227-0.184-6.257,0.049c-2.336,0.268-4.636,0.295-6.947,0.764
				c-2.265,0.459-4.645,0.648-6.716,1.729c-1.971,1.031-3.74,2.373-5.217,4.023c-0.778,0.867-1.548,1.717-2.256,2.641
				c-0.427,0.559-0.549,0.947-0.813,1.582c-0.218,0.52-0.642,0.965-0.656,1.547c1.089,0.229,2.505,0.484,3.599,0.264
				c0.521-0.105,1.112,0.062,1.657,0.031c0.58-0.033,1.156,0.049,1.734,0.014c2.435-0.139,4.802-0.293,7.188-0.777
				c4.71-0.955,9.246-2.418,13.487-4.631c1.687-0.879,3.38-1.611,4.942-2.701c1.53-1.068,3.206-2.049,4.8-3.039
				c-6.413-7.137-17.266-10.162-26.5-7.072c-0.57,0.191-1.105,0.412-1.628,0.65c-0.287-0.035-0.606-0.008-0.991,0.143
				c-1.676,0.666-3.304,2.068-4.683,3.188c-3.231,2.619-6.076,5.885-8.502,9.217c-1.35,1.85-2.486,3.82-3.524,5.844v-53.002
				c3.496-5.033,6.462-11.283,6.462-20.941s-2.966-15.908-6.462-20.939v-53.305c3.496-5.031,6.462-11.283,6.462-20.943
				c0-6.96-1.545-12.143-3.714-16.385c0.971-1.977,2.069-3.912,3.269-5.818c1.732-2.754,3.886-5.164,6.136-7.524
				c1.248-1.308,2.573-2.571,3.992-3.702c0.026-0.021,0.053-0.041,0.078-0.062c1.734-0.738,3.616-1.197,5.476-1.574
				c2.399-0.487,4.895-0.428,7.318-0.106c1.312,0.172,2.628,0.299,3.912,0.609c1.266,0.307,2.507,0.69,3.783,0.958
				c0.189,0.041,0.383,0.125,0.571,0.217C91.193,248.593,89.081,248.581,87.048,248.813z M51.242,118.909v40.696
				c-1.244-2.566-2.606-5.077-4.297-7.396c-0.606-0.831-1.238-1.658-1.895-2.472c-1.058-2.853-1.698-6.176-1.698-10.377
				C43.35,129.394,46.919,124.325,51.242,118.909z M43.35,234.554c0-9.964,3.569-15.032,7.892-20.448v40.897
				C46.919,249.587,43.35,244.518,43.35,234.554z M51.242,309.299v39.359c-1.244-2.568-2.606-5.078-4.297-7.396
				c-0.809-1.109-1.68-2.199-2.579-3.273c-0.642-2.359-1.014-5.045-1.014-8.24C43.35,319.781,46.919,314.715,51.242,309.299z
				 M43.35,424.932c0-9.965,3.569-15.033,7.892-20.447v40.896C46.919,439.965,43.35,434.896,43.35,424.932z"/>
			<path d="M60.02,0.783c0.222,0.056,0.45,0.099,0.669,0.158c-0.069-0.105-0.133-0.225-0.202-0.326
				c-0.226-0.33-0.336-0.717-0.495-0.521C59.991,0.062,59.99,0.031,59.989,0c-0.277,0.183-0.534,0.395-0.806,0.587
				c0.183,0.042,0.366,0.085,0.548,0.129C59.827,0.739,59.924,0.759,60.02,0.783z"/>
			<path d="M115.525,52.041c4.548,1.201,8.772,3.394,12.87,6.016c2.711,1.733,5.083,3.886,7.406,6.135
				c1.287,1.248,2.53,2.574,3.643,3.993c0.021,0.026,0.041,0.052,0.061,0.078c0.726,1.734,1.179,3.616,1.549,5.476
				c0.479,2.399,0.422,4.895,0.104,7.318c-0.17,1.311-0.294,2.628-0.6,3.912c-0.302,1.266-0.679,2.506-0.942,3.783
				c-0.04,0.189-0.122,0.382-0.214,0.571c0.168-2.113,0.18-4.227-0.048-6.259c-0.263-2.335-0.291-4.635-0.751-6.946
				c-0.452-2.265-0.638-4.645-1.702-6.716c-1.014-1.971-2.336-3.74-3.959-5.216c-0.855-0.778-1.69-1.548-2.6-2.257
				c-0.548-0.427-0.931-0.549-1.556-0.813c-0.512-0.217-0.949-0.642-1.523-0.656c-0.225,1.089-0.476,2.505-0.257,3.599
				c0.104,0.521-0.062,1.112-0.032,1.657c0.032,0.58-0.047,1.156-0.014,1.734c0.136,2.435,0.289,4.802,0.765,7.188
				c0.939,4.71,2.379,9.246,4.558,13.487c0.866,1.687,1.585,3.38,2.659,4.942c1.051,1.53,2.017,3.206,2.991,4.8
				c7.023-6.413,10.001-17.266,6.96-26.5c-0.188-0.57-0.406-1.105-0.639-1.626c0.036-0.287,0.008-0.606-0.141-0.991
				c-0.654-1.676-2.035-3.304-3.137-4.683c-2.578-3.231-5.792-6.076-9.071-8.502c-1.819-1.348-3.758-2.485-5.748-3.522h45.262
				c4.67,2.95,10.473,5.266,18.909,5.266c8.435,0,14.237-2.315,18.907-5.266h56.173c4.67,2.95,10.473,5.266,18.91,5.266
				c8.134,0,13.828-2.149,18.412-4.948c4.117,1.253,7.977,3.295,11.732,5.698c2.711,1.733,5.082,3.886,7.404,6.135
				c1.287,1.248,2.531,2.574,3.643,3.993c0.021,0.026,0.041,0.052,0.062,0.078c0.725,1.734,1.178,3.616,1.549,5.476
				c0.48,2.399,0.422,4.895,0.105,7.318c-0.17,1.311-0.295,2.628-0.602,3.912c-0.301,1.266-0.678,2.506-0.941,3.783
				c-0.039,0.189-0.121,0.382-0.213,0.571c0.168-2.113,0.18-4.227-0.049-6.259c-0.264-2.335-0.291-4.635-0.75-6.946
				c-0.453-2.265-0.639-4.645-1.703-6.716c-1.014-1.971-2.336-3.74-3.959-5.216c-0.854-0.778-1.689-1.548-2.6-2.257
				c-0.549-0.427-0.93-0.549-1.557-0.813c-0.512-0.217-0.949-0.642-1.521-0.656c-0.225,1.089-0.477,2.505-0.258,3.599
				c0.104,0.521-0.062,1.112-0.031,1.657c0.031,0.58-0.047,1.156-0.016,1.734c0.137,2.435,0.289,4.802,0.768,7.188
				c0.939,4.71,2.377,9.246,4.557,13.487c0.865,1.687,1.584,3.38,2.658,4.942c1.051,1.53,2.016,3.206,2.99,4.8
				c7.023-6.413,10-17.266,6.961-26.5c-0.189-0.57-0.408-1.105-0.641-1.626c0.035-0.287,0.008-0.606-0.141-0.991
				c-0.654-1.676-2.035-3.304-3.137-4.683c-2.578-3.231-5.793-6.076-9.07-8.502c-1.82-1.348-3.76-2.485-5.75-3.522h47.188
				c4.67,2.95,10.475,5.266,18.91,5.266c8.434,0,14.238-2.315,18.908-5.266h56.184c3.561,2.25,7.797,4.119,13.346,4.884
				c-0.293-1.599-0.512-3.226-0.627-4.884c-0.057-0.824-0.08-1.655-0.092-2.491c-0.002-0.207-0.021-0.409-0.021-0.615
				c0-0.559,0.037-1.117,0.059-1.675h-6.627c-3.055-1.577-5.625-3.658-8.363-5.888c-4.67-3.802-9.842-7.988-18.098-9.638
				c0.83-1.115,1.521-2.343,1.947-3.641c0.377-1.15,0.879-2.298,1.316-3.432c0.457-1.183,0.521-2.436,0.715-3.68
				c0.373-2.419,0.23-4.811,0.053-7.229c-0.086-1.156-0.414-2.325-0.639-3.459c-0.221-1.117-0.699-2.131-0.918-3.238
				c-0.438-2.212-1.596-4.611-2.844-6.438c-0.227-0.33-0.336-0.717-0.494-0.521c-0.002-0.031-0.004-0.062-0.004-0.093
				c-3.324,2.188-6.221,5.029-8.797,8.079c-3.252,3.848-5.764,8.287-7.596,13.026c-0.428,1.11-0.834,2.188-1.238,3.306
				c-0.449,1.241-0.732,2.52-1.09,3.792c-0.299,1.065-0.75,2.459-0.766,3.571c-0.006,0.465-0.029,0.932-0.064,1.399
				c-5.449,2.051-9.383,5.242-13.016,8.199c-2.738,2.23-5.307,4.311-8.361,5.887h-10.043h-15.707
				c-3.055-1.576-5.623-3.657-8.361-5.888C351.107,36.511,344.34,31,331.312,31c-13.023,0-19.793,5.51-25.764,10.373
				c-2.74,2.23-5.307,4.31-8.361,5.888h-25.745c-3.055-1.576-5.623-3.657-8.363-5.888c-4.35-3.542-9.134-7.417-16.439-9.266
				c0.956-1.21,1.752-2.57,2.226-4.013c0.376-1.15,0.88-2.299,1.317-3.432c0.457-1.184,0.521-2.436,0.715-3.681
				c0.373-2.419,0.23-4.811,0.051-7.229c-0.085-1.156-0.414-2.325-0.638-3.459c-0.22-1.116-0.698-2.131-0.917-3.238
				c-0.438-2.213-1.596-4.612-2.844-6.438c-0.226-0.33-0.335-0.717-0.495-0.521c-0.001-0.031-0.002-0.062-0.003-0.093
				c-3.324,2.189-6.221,5.029-8.796,8.079c-3.251,3.848-5.764,8.287-7.595,13.027c-0.429,1.11-0.834,2.187-1.238,3.306
				c-0.449,1.241-0.734,2.52-1.09,3.792c-0.299,1.065-0.749,2.458-0.766,3.57c-0.003,0.242-0.012,0.484-0.022,0.727
				c-6.501,1.971-10.93,5.567-14.986,8.87c-2.738,2.23-5.307,4.311-8.361,5.888h-8.518h-17.226
				c-3.055-1.577-5.623-3.658-8.362-5.888C163.119,36.512,156.353,31,143.327,31c-13.025,0-19.793,5.511-25.764,10.373
				c-2.74,2.23-5.307,4.311-8.362,5.888h-3.962c0.11,0.509,0.194,1.023,0.286,1.536c0.192,1.077,0.344,2.159,0.457,3.245
				c0.136,1.335,0.226,2.674,0.237,4.011c3.518-0.958,6.446-2.384,9.021-4.011h0.287V52.041z M446.551,46.934
				c0.133,0.107,0.268,0.218,0.402,0.325h-33.74c2.529-1.246,4.998-2.606,7.283-4.3c1.943-1.44,3.848-3.043,5.627-4.769
				C436.037,38.398,440.93,42.356,446.551,46.934z M425.266,28.548c2.91-4.018,3.801-9.07,5.334-13.729
				c0.545-1.663,0.924-3.423,1.18-5.22c0.131,1.181,0.201,2.369,0.184,3.554c-0.066,4.761-0.256,9.664-2.209,14.074
				c-0.439,0.993-0.938,1.921-1.486,2.81c-0.076,0.1-0.154,0.202-0.232,0.301c-0.193,0.247-0.41,0.476-0.611,0.717
				c-0.688-0.033-1.387-0.056-2.111-0.056c-0.77,0-1.512,0.023-2.238,0.06C423.906,30.324,424.598,29.472,425.266,28.548z
				 M419.494,38.666c-0.811,0.634-1.637,1.246-2.508,1.803c-3.859,2.469-7.834,4.555-12.082,5.795
				C409.164,42.807,413.166,39.805,419.494,38.666z M310.078,46.934c5.773-4.702,10.76-8.763,21.234-8.763
				c10.477,0,15.463,4.061,21.238,8.763c0.133,0.107,0.268,0.218,0.4,0.325H309.68C309.811,47.15,309.945,47.042,310.078,46.934z
				 M258.552,46.934c0.133,0.107,0.268,0.218,0.402,0.325h-31.803c2.527-1.246,4.998-2.606,7.282-4.3
				c1.912-1.416,3.785-2.992,5.541-4.684C248.67,38.909,253.292,42.65,258.552,46.934z M239.204,28.548
				c2.909-4.018,3.801-9.07,5.333-13.729c0.546-1.663,0.924-3.423,1.18-5.22c0.13,1.181,0.201,2.369,0.184,3.554
				c-0.067,4.761-0.256,9.664-2.209,14.074c-0.44,0.993-0.938,1.919-1.486,2.809c-0.079,0.101-0.155,0.202-0.234,0.303
				c-0.23,0.294-0.485,0.566-0.727,0.852c-1.248-0.117-2.546-0.191-3.929-0.191c-0.083,0-0.16,0.006-0.244,0.006
				C237.879,30.284,238.551,29.449,239.204,28.548z M233.84,38.339c-0.938,0.753-1.898,1.477-2.917,2.128
				c-4.68,2.993-9.524,5.428-14.83,6.457C221.183,42.782,225.669,39.141,233.84,38.339z M122.093,46.934
				c5.774-4.702,10.761-8.763,21.236-8.763s15.461,4.061,21.235,8.763c0.132,0.107,0.268,0.218,0.401,0.325h-43.271
				C121.825,47.15,121.96,47.042,122.093,46.934z"/>
			<path d="M488.779,325.025c2.336-0.268,4.635-0.293,6.947-0.762c2.264-0.459,4.645-0.648,6.715-1.73
				c1.973-1.029,3.74-2.373,5.217-4.021c0.779-0.867,1.549-1.717,2.258-2.641c0.426-0.559,0.549-0.947,0.812-1.582
				c0.217-0.52,0.641-0.965,0.656-1.547c-1.09-0.229-2.506-0.482-3.6-0.262c-0.521,0.105-1.111-0.064-1.656-0.033
				c-0.58,0.033-1.156-0.047-1.734-0.014c-2.436,0.139-4.803,0.293-7.188,0.777c-4.711,0.955-9.246,2.418-13.486,4.631
				c-1.688,0.881-3.381,1.611-4.943,2.701c-1.529,1.068-3.205,2.049-4.801,3.039c6.414,7.137,17.268,10.162,26.5,7.072
				c0.57-0.191,1.105-0.414,1.629-0.65c0.287,0.035,0.605,0.008,0.99-0.145c1.676-0.664,3.305-2.066,4.684-3.186
				c3.23-2.621,6.076-5.885,8.502-9.217c1.246-1.709,2.312-3.52,3.287-5.379c0.078,0.107,0.16,0.215,0.236,0.322v34.643
				c-1.02,1.424-2.129,2.803-3.273,4.23c-4.855,6.041-10.359,12.883-10.359,26.047c0,13.162,5.504,20.006,10.359,26.045
				c1.145,1.426,2.254,2.807,3.273,4.23v33.562c-1.361,1.918-2.871,3.75-4.408,5.609c-5.256,6.357-11.115,13.48-9.646,24.799
				c2.244-0.965,4.586-1.723,6.973-2.303c-0.428-6.82,2.848-11.398,7.082-16.568v15.432c1.035-0.076,2.072-0.119,3.107-0.119
				c0.562,0,1.117,0.033,1.674,0.055V446.76c4.021-5.33,7.578-11.668,7.855-20.713c1.141,1.283,2.352,2.494,3.621,3.629
				c0.453,0.861,0.977,1.686,1.625,2.41c1.605,1.799,3.73,3.434,6.064,4.211c1.148,0.383,2.299,0.895,3.432,1.338
				c1.184,0.465,2.436,0.529,3.68,0.725c2.42,0.379,4.811,0.234,7.229,0.053c1.156-0.086,2.326-0.42,3.461-0.648
				c1.115-0.223,2.131-0.709,3.236-0.932c2.213-0.443,4.613-1.621,6.439-2.889c0.328-0.23,0.717-0.342,0.521-0.504
				c0.029,0,0.061-0.002,0.092-0.004c-2.188-3.377-5.027-6.32-8.078-8.938c-3.848-3.305-8.287-5.857-13.027-7.719
				c-1.109-0.436-2.188-0.848-3.307-1.258c-1.24-0.457-2.52-0.746-3.791-1.109c-1.064-0.303-2.459-0.762-3.57-0.777
				c-1.217-0.018-2.457-0.109-3.646-0.391c0.523,2.48,0.656,4.982,1.932,7.25c0.637,1.133,1.195,2.158,1.982,3.213
				c0.82,1.107,1.844,1.949,2.959,2.77c4.018,2.957,9.07,3.863,13.73,5.42c1.662,0.555,3.424,0.939,5.221,1.199
				c-1.182,0.133-2.369,0.205-3.555,0.188c-4.762-0.068-9.664-0.26-14.074-2.244c-0.992-0.447-1.92-0.953-2.809-1.51
				c-0.1-0.08-0.201-0.158-0.301-0.238c-1.422-1.129-2.744-2.393-3.992-3.701c-0.699-0.732-1.381-1.475-2.051-2.227
				c-0.107-0.195-0.213-0.393-0.338-0.584c-0.26-0.4-0.428-1.203-0.779-1.479c0.07,0.277,0.057,0.549,0.029,0.818
				c-0.82-0.977-1.588-1.992-2.311-3.047c-1.059-7.434-4.066-12.521-7.289-16.812c-0.076-0.473-0.137-0.951-0.191-1.43v-18.883
				v-29.316c4.078-5.379,7.891-11.953,7.891-22.908s-3.812-17.531-7.891-22.91v-49.373c3.768-4.97,7.309-10.96,7.826-20.479
				c1.146,1.296,2.369,2.52,3.65,3.665c0.453,0.861,0.977,1.686,1.625,2.411c1.605,1.797,3.73,3.433,6.064,4.209
				c1.148,0.383,2.297,0.895,3.432,1.338c1.184,0.465,2.436,0.529,3.68,0.726c2.42,0.379,4.811,0.234,7.229,0.052
				c1.156-0.087,2.326-0.42,3.461-0.649c1.115-0.224,2.131-0.709,3.236-0.932c2.213-0.444,4.613-1.621,6.439-2.889
				c0.328-0.229,0.717-0.341,0.52-0.503c0.031-0.001,0.062-0.002,0.094-0.003c-2.188-3.377-5.027-6.321-8.078-8.938
				c-3.848-3.304-8.287-5.857-13.027-7.718c-1.109-0.436-2.188-0.848-3.307-1.259c-1.24-0.457-2.52-0.746-3.791-1.108
				c-1.064-0.304-2.459-0.761-3.57-0.778c-1.217-0.017-2.457-0.108-3.646-0.39c0.523,2.48,0.656,4.981,1.932,7.25
				c0.637,1.133,1.195,2.158,1.982,3.213c0.82,1.106,1.844,1.948,2.959,2.77c4.018,2.956,9.07,3.862,13.73,5.419
				c1.662,0.555,3.424,0.939,5.219,1.199c-1.18,0.133-2.369,0.205-3.553,0.188c-4.762-0.068-9.664-0.261-14.074-2.245
				c-0.992-0.447-1.92-0.954-2.811-1.51c-0.1-0.08-0.201-0.158-0.301-0.236c-1.42-1.13-2.744-2.395-3.992-3.702
				c-0.699-0.732-1.381-1.475-2.051-2.227c-0.107-0.196-0.213-0.394-0.338-0.584c-0.26-0.402-0.428-1.203-0.779-1.479
				c0.07,0.277,0.059,0.55,0.031,0.82c-0.746-0.886-1.445-1.806-2.111-2.755c-0.838-8.49-4.156-14.04-7.68-18.69v-19.731v-29.639
				c4.076-5.38,7.891-11.953,7.891-22.908c0-10.955-3.812-17.531-7.891-22.91v-10.659c-0.559,0.021-1.111,0.055-1.676,0.055
				c-1.021,0-2.061-0.055-3.105-0.138v4.671c-1.234-1.622-2.373-3.269-3.34-5.076c-2.908-0.464-5.834-1.228-8.682-2.304
				c1.99,6.381,5.508,10.779,8.746,14.807c0.236,0.294,0.469,0.584,0.703,0.875c-1.01,2.1-2.174,4.151-3.443,6.169
				c-1.732,2.755-3.887,5.165-6.137,7.524c-1.248,1.308-2.572,2.571-3.992,3.702c-0.025,0.021-0.053,0.041-0.078,0.061
				c-1.734,0.737-3.615,1.196-5.475,1.574c-2.4,0.486-4.895,0.429-7.318,0.106c-1.311-0.172-2.629-0.299-3.912-0.609
				c-1.266-0.308-2.506-0.69-3.783-0.957c-0.189-0.041-0.383-0.125-0.572-0.217c2.113,0.172,4.229,0.184,6.258-0.049
				c2.336-0.268,4.637-0.294,6.947-0.763c2.266-0.459,4.645-0.649,6.717-1.729c1.971-1.03,3.74-2.373,5.217-4.022
				c0.777-0.868,1.547-1.717,2.256-2.642c0.428-0.559,0.549-0.947,0.812-1.582c0.219-0.52,0.643-0.965,0.656-1.548
				c-1.088-0.229-2.504-0.483-3.598-0.262c-0.521,0.105-1.111-0.063-1.656-0.032c-0.58,0.034-1.156-0.048-1.736-0.014
				c-2.434,0.139-4.801,0.294-7.186,0.778c-4.711,0.955-9.246,2.417-13.488,4.63c-1.686,0.879-3.379,1.611-4.941,2.702
				c-1.531,1.067-3.207,2.049-4.801,3.039c6.412,7.137,17.266,10.162,26.5,7.072c0.57-0.191,1.105-0.412,1.629-0.65
				c0.285,0.036,0.605,0.008,0.99-0.144c1.676-0.665,3.303-2.067,4.684-3.187c3.23-2.62,6.076-5.884,8.502-9.217
				c1.35-1.849,2.486-3.82,3.523-5.844v34.108c-1.021,1.424-2.129,2.803-3.275,4.23c-4.855,6.039-10.357,12.882-10.357,26.043
				c0,13.16,5.502,20.003,10.357,26.042c1.146,1.426,2.254,2.806,3.275,4.23v34.639c-1.021,1.423-2.129,2.803-3.275,4.23
				c-4.855,6.039-10.357,12.883-10.357,26.045c0,13.161,5.502,20.006,10.357,26.045c0.1,0.123,0.197,0.246,0.297,0.369
				c-0.914,1.814-1.934,3.596-3.037,5.352c-1.732,2.754-3.887,5.162-6.137,7.523c-1.246,1.309-2.572,2.57-3.992,3.701
				c-0.025,0.021-0.053,0.041-0.076,0.062c-1.734,0.738-3.617,1.197-5.477,1.574c-2.398,0.486-4.895,0.428-7.318,0.107
				c-1.311-0.172-2.627-0.299-3.912-0.609c-1.266-0.309-2.506-0.691-3.783-0.959c-0.188-0.039-0.383-0.123-0.57-0.217
				C484.635,325.246,486.746,325.258,488.779,325.025z M524.586,431.129v-13.283c0.459,2.072,0.719,4.395,0.719,7.072
				C525.305,427.188,525.039,429.234,524.586,431.129z M519.805,395.938c-3.652-4.793-6.463-9.779-6.463-18.619
				s2.812-13.824,6.463-18.619v23.248V395.938z M525.305,329.723c0,2.678-0.258,4.998-0.719,7.07V322.65
				C525.045,324.723,525.305,327.045,525.305,329.723z M524.586,132.273c0.459,2.072,0.719,4.394,0.719,7.072
				c0,2.677-0.258,4.999-0.719,7.071V132.273z M513.342,186.939c0-8.837,2.812-13.823,6.463-18.617v23.57v13.663
				C516.152,200.761,513.342,195.777,513.342,186.939z M524.586,227.46c0.459,2.071,0.719,4.394,0.719,7.07
				c0,2.677-0.258,4.999-0.719,7.071V227.46z M513.342,282.125c0-8.838,2.812-13.824,6.463-18.618v37.235
				C516.152,295.949,513.342,290.963,513.342,282.125z"/>
			<path d="M161.343,549.428c0.449-1.242,0.734-2.521,1.09-3.793c0.299-1.064,0.75-2.459,0.766-3.57
				c0.017-1.217,0.108-2.455,0.384-3.645c-2.441,0.521-4.902,0.654-7.135,1.93c-1.115,0.637-2.123,1.197-3.162,1.982
				c-1.089,0.82-1.917,1.844-2.725,2.961c-2.91,4.018-3.801,9.068-5.333,13.729c-0.546,1.662-0.925,3.424-1.18,5.221
				c-0.132-1.182-0.201-2.369-0.184-3.555c0.067-4.76,0.255-9.664,2.209-14.072c0.439-0.994,0.938-1.922,1.485-2.811
				c0.078-0.102,0.156-0.203,0.233-0.303c1.111-1.42,2.356-2.744,3.643-3.992c0.721-0.699,1.453-1.379,2.191-2.051
				c0.193-0.107,0.388-0.213,0.575-0.336c0.395-0.262,1.183-0.43,1.456-0.779c-0.274,0.07-0.542,0.057-0.807,0.029
				c1.266-1.082,2.581-2.1,3.99-3.002c5.305-3.393,10.816-6.074,16.979-6.791h18.86h21.616c5.032,3.6,11.281,6.697,21.047,6.697
				s16.015-3.098,21.047-6.697h51.904c5.031,3.6,11.279,6.697,21.047,6.697c2.979,0,5.617-0.299,8.008-0.801
				c-2.094,1.688-4.088,3.555-5.869,5.58c-0.848,0.455-1.66,0.977-2.373,1.627c-1.77,1.605-3.379,3.73-4.143,6.062
				c-0.377,1.15-0.881,2.299-1.318,3.432c-0.457,1.184-0.521,2.436-0.715,3.682c-0.373,2.418-0.23,4.811-0.051,7.229
				c0.084,1.156,0.414,2.324,0.639,3.459c0.219,1.117,0.697,2.131,0.916,3.238c0.438,2.213,1.596,4.611,2.844,6.438
				c0.227,0.33,0.336,0.717,0.494,0.521c0.002,0.031,0.004,0.062,0.004,0.094c3.324-2.189,6.221-5.029,8.797-8.08
				c3.252-3.848,5.764-8.287,7.596-13.025c0.428-1.111,0.834-2.188,1.238-3.307c0.449-1.24,0.732-2.52,1.09-3.791
				c0.299-1.066,0.75-2.459,0.766-3.57c0.018-1.217,0.107-2.457,0.385-3.646c-2.441,0.521-4.902,0.654-7.135,1.93
				c-1.117,0.639-2.123,1.197-3.162,1.982c-1.09,0.822-1.918,1.844-2.727,2.961c-2.908,4.018-3.801,9.07-5.332,13.729
				c-0.547,1.664-0.924,3.424-1.18,5.221c-0.133-1.182-0.201-2.369-0.186-3.553c0.068-4.762,0.256-9.664,2.209-14.074
				c0.441-0.994,0.939-1.92,1.486-2.809c0.078-0.102,0.156-0.203,0.234-0.303c1.111-1.422,2.355-2.744,3.643-3.992
				c0.721-0.699,1.453-1.381,2.191-2.051c0.193-0.107,0.389-0.213,0.576-0.338c0.395-0.26,1.182-0.428,1.455-0.779
				c-0.273,0.07-0.541,0.057-0.807,0.029c1.266-1.082,2.58-2.1,3.99-3c5.305-3.393,10.816-6.076,16.979-6.793h19.266h23.133
				c5.031,3.602,11.279,6.699,21.045,6.699c9.768,0,16.016-3.098,21.047-6.699h19.695c-0.021-0.559-0.055-1.111-0.055-1.674
				c0-1.035,0.043-2.072,0.119-3.107h-5.83c-1.842-0.486-3.631-1.135-5.377-1.914c3.449-2.553,7.133-4.594,12.4-5.383
				c0.639-2.568,1.5-5.072,2.584-7.463c-10.477,0.578-16.629,4.9-21.877,9.115c-0.199-0.125-0.402-0.244-0.602-0.369
				c-2.711-1.734-5.082-3.887-7.406-6.137c-1.287-1.248-2.531-2.572-3.643-3.992c-0.021-0.025-0.041-0.053-0.062-0.078
				c-0.725-1.734-1.178-3.615-1.549-5.475c-0.479-2.4-0.422-4.895-0.104-7.318c0.17-1.311,0.295-2.629,0.6-3.912
				c0.303-1.266,0.68-2.506,0.943-3.783c0.039-0.189,0.121-0.383,0.213-0.572c-0.168,2.115-0.18,4.229,0.049,6.26
				c0.262,2.336,0.289,4.635,0.75,6.945c0.451,2.266,0.639,4.645,1.701,6.717c1.014,1.971,2.336,3.74,3.959,5.217
				c0.855,0.777,1.691,1.547,2.6,2.256c0.549,0.428,0.932,0.549,1.557,0.812c0.512,0.219,0.949,0.643,1.523,0.656
				c0.225-1.088,0.477-2.504,0.258-3.598c-0.105-0.521,0.061-1.111,0.031-1.656c-0.031-0.58,0.047-1.156,0.014-1.734
				c-0.135-2.436-0.289-4.803-0.764-7.188c-0.939-4.711-2.379-9.246-4.559-13.488c-0.865-1.686-1.584-3.379-2.658-4.941
				c-1.051-1.531-2.016-3.207-2.99-4.801c-7.023,6.412-10.002,17.266-6.961,26.5c0.188,0.57,0.406,1.105,0.641,1.627
				c-0.037,0.287-0.01,0.605,0.141,0.99c0.654,1.676,2.033,3.305,3.137,4.684c2.578,3.23,5.791,6.076,9.07,8.502
				c0.262,0.193,0.527,0.373,0.791,0.559c-1.328,1.059-2.656,2.061-4.053,2.965h-30.67c-2.039-1.32-3.924-2.848-5.898-4.455
				c-5.971-4.863-12.74-10.375-25.766-10.375c-13.023,0-19.789,5.512-25.76,10.375c-1.975,1.605-3.861,3.135-5.9,4.455h-30.662
				c-2.041-1.32-3.928-2.85-5.9-4.457c-5.971-4.861-12.738-10.373-25.764-10.373c-11.365,0-17.964,4.195-23.428,8.496
				c-2.519-1.678-4.76-3.699-6.949-5.818c-1.287-1.248-2.53-2.572-3.643-3.992c-0.021-0.025-0.041-0.053-0.061-0.078
				c-0.726-1.734-1.179-3.615-1.55-5.475c-0.479-2.398-0.422-4.895-0.104-7.318c0.17-1.311,0.294-2.629,0.6-3.912
				c0.302-1.266,0.679-2.506,0.942-3.783c0.04-0.189,0.122-0.383,0.214-0.57c-0.168,2.113-0.18,4.227,0.048,6.258
				c0.263,2.336,0.291,4.635,0.75,6.945c0.452,2.266,0.639,4.646,1.702,6.717c1.014,1.971,2.336,3.74,3.959,5.217
				c0.854,0.777,1.69,1.547,2.6,2.256c0.548,0.428,0.931,0.549,1.556,0.814c0.512,0.217,0.949,0.641,1.523,0.656
				c0.225-1.09,0.476-2.506,0.257-3.6c-0.104-0.521,0.062-1.111,0.032-1.656c-0.032-0.58,0.046-1.156,0.014-1.734
				c-0.136-2.436-0.289-4.803-0.766-7.188c-0.939-4.711-2.378-9.246-4.557-13.488c-0.865-1.686-1.585-3.379-2.658-4.941
				c-1.051-1.531-2.017-3.207-2.991-4.801c-7.023,6.412-10.001,17.266-6.96,26.5c0.188,0.57,0.407,1.105,0.64,1.627
				c-0.035,0.287-0.008,0.605,0.141,0.99c0.654,1.676,2.034,3.305,3.137,4.684c2.52,3.158,5.649,5.939,8.85,8.33
				c-1.64,1.328-3.249,2.584-4.964,3.695h-30.669c-2.041-1.32-3.926-2.85-5.901-4.457c-5.97-4.861-12.738-10.373-25.765-10.373
				c-13.025,0-19.793,5.512-25.764,10.373c-1.974,1.607-3.86,3.135-5.9,4.457h-30.671c-2.042-1.32-3.928-2.85-5.901-4.457
				c-3.91-3.184-8.176-6.637-14.303-8.646c0.702,2.711,1.156,5.486,1.326,8.277c2.58,1.318,4.812,2.996,7.083,4.826h-7.068
				c-0.083,1.621-0.256,3.215-0.507,4.781h13.659c5.032,3.6,11.281,6.699,21.049,6.699c4.228,0,7.788-0.588,10.883-1.539
				c-2.428,1.883-4.764,3.99-6.812,6.316c-0.846,0.455-1.659,0.977-2.373,1.627c-1.769,1.605-3.378,3.73-4.143,6.062
				c-0.376,1.15-0.88,2.299-1.317,3.432c-0.457,1.184-0.521,2.438-0.715,3.682c-0.373,2.418-0.23,4.811-0.051,7.229
				c0.085,1.156,0.414,2.324,0.638,3.459c0.22,1.117,0.698,2.131,0.918,3.238c0.436,2.213,1.596,4.611,2.843,6.438
				c0.226,0.33,0.336,0.719,0.495,0.521c0.001,0.031,0.002,0.062,0.003,0.094c3.324-2.189,6.221-5.029,8.796-8.08
				c3.251-3.848,5.764-8.287,7.595-13.025C160.534,551.623,160.939,550.545,161.343,549.428z M378.33,514.143
				c9.641,0,14.633,3.441,19.869,7.656h-17.051h-22.684C363.699,517.584,368.689,514.143,378.33,514.143z M284.341,514.143
				c9.64,0,14.634,3.441,19.868,7.656h-29.97c-2.258-0.598-4.438-1.43-6.56-2.451C271.934,516.328,276.661,514.143,284.341,514.143z
				 M190.341,514.143c9.642,0,14.634,3.441,19.87,7.656h-15.532h-24.206C175.708,517.584,180.701,514.143,190.341,514.143z"/>
			<path d="M20.717,84.756c3.512,12.019,16.595,18.934,28.616,18.934c0.634,0,1.271-0.03,1.909-0.065
				c0.613-0.035,1.225-0.095,1.837-0.163c0.985-0.11,1.968-0.251,2.944-0.446c1.798-0.36,3.562-0.873,5.274-1.513
				c7.732-2.896,14.262-8.592,16.541-16.64c9.109-2.58,15.218-10.599,17.645-19.655c0.693-2.586,1.075-5.256,1.15-7.909
				c0.004-0.139,0.012-0.279,0.015-0.417c0.002-0.174,0.018-0.351,0.018-0.526c0-1.428-0.103-2.872-0.292-4.314
				c-0.085-0.641-0.195-1.279-0.317-1.917c-0.183-0.961-0.395-1.918-0.659-2.864c-2.492-8.891-8.587-16.863-17.666-19.412
				c-1.926-6.8-6.849-11.929-12.975-15.104c-1.598-0.828-3.282-1.508-5.013-2.065c-0.083-0.027-0.168-0.054-0.252-0.08
				c-1.141-0.357-2.295-0.667-3.469-0.902c-1.581-0.318-3.18-0.519-4.781-0.611c-0.279-0.016-0.557-0.021-0.836-0.029
				c-0.357-0.012-0.716-0.037-1.073-0.037c-12.02,0-25.104,6.807-28.616,18.829C8.803,31.358,1.996,44.335,1.996,56.355
				C1.997,68.587,8.805,81.352,20.717,84.756z M62.317,95.441c-1.978,1.022-4.104,1.809-6.294,2.334
				c-0.424,0.102-0.851,0.196-1.28,0.279c-1.159,0.225-2.331,0.377-3.501,0.459c-0.637,0.043-1.274,0.07-1.909,0.07
				c-9.255,0-19.149-4.681-22.87-12.978c0.211,0,0.532,0.106,0.745,0.106c4.468,0,9.68-1.276,13.828-3.827
				c2.553,1.062,5.425,1.594,8.299,1.594c0.632,0,1.271-0.036,1.909-0.091c0.08-0.007,0.159-0.009,0.238-0.017
				c0.717-0.071,1.433-0.178,2.142-0.318c0.816-0.162,1.615-0.383,2.4-0.636c0.163-0.053,0.322-0.114,0.482-0.171
				c0.339-0.119,0.687-0.223,1.018-0.361c1.211,0.776,2.527,1.411,3.887,1.94c3.299,1.286,6.883,1.888,10.047,1.888
				c0.211,0,0.427-0.106,0.638-0.106C70.162,89.911,66.592,93.232,62.317,95.441z M36.15,55.29c2.33-0.002,4.687-0.955,6.7-2.462
				c0.331-0.248,0.65-0.51,0.961-0.787c1.506-1.342,2.746-2.998,3.532-4.781c0.583-1.324,0.926-2.713,0.926-4.094
				c0-0.044-0.005-0.086-0.006-0.13c-0.015-1.63-0.295-3.115-0.777-4.462c-0.063-0.178-0.139-0.349-0.209-0.522
				c-0.489-1.204-1.127-2.302-1.879-3.29c1.276-0.318,2.551-0.53,3.936-0.53c0.619,0,1.264,0.051,1.909,0.14
				c0.28,0.038,0.56,0.086,0.837,0.137c0.117,0.021,0.233,0.043,0.349,0.066c0.283,0.057,0.564,0.118,0.839,0.187
				c-0.391,0.483-0.739,0.996-1.057,1.53c-0.199,0.336-0.386,0.68-0.555,1.037c-0.15,0.318-0.288,0.644-0.414,0.979
				c-0.345,0.925-0.587,1.917-0.719,2.978c-0.077,0.607-0.127,1.229-0.127,1.883c0,1.36,0.313,2.716,0.846,4.008
				c0.012,0.029,0.023,0.058,0.035,0.086c0.757,1.792,1.958,3.444,3.436,4.781c0.418,0.379,0.854,0.738,1.311,1.061
				c1.919,1.354,4.148,2.188,6.393,2.188c3.404,0,6.169-1.062,8.403-2.871c0.263,1.047,0.444,2.162,0.504,3.236
				c0.009,0.165,0.017,0.329,0.019,0.491c0.001,0.069,0.008,0.141,0.008,0.209c0,1.383-0.211,2.66-0.532,3.936
				c-0.764-0.582-1.596-1.096-2.489-1.527c-0.22-0.106-0.446-0.206-0.673-0.3c-1.553-0.649-3.289-1.044-5.242-1.044
				c-2.223,0-4.461,0.845-6.393,2.214c-2.022,1.432-3.701,3.439-4.684,5.65c-0.035,0.076-0.063,0.155-0.097,0.233
				c-0.533,1.268-0.846,2.595-0.846,3.921c0,1.793,0.303,3.405,0.846,4.875c0.489,1.321,1.17,2.527,2.025,3.635
				c-0.613,0.153-1.252,0.255-1.891,0.322c-0.044,0.005-0.089,0.009-0.134,0.014c-0.646,0.062-1.29,0.089-1.909,0.089
				c-1.385,0-2.66-0.106-3.936-0.425c1.115-1.536,1.995-3.259,2.473-5.22c0.251-1.029,0.398-2.119,0.398-3.291
				c0-5.589-5.43-11.27-11.022-11.95c-0.368-0.044-0.736-0.068-1.104-0.068c-3.404,0-6.275,1.063-8.508,2.871
				c-0.32-1.276-0.427-2.659-0.427-3.936c0-1.276,0.106-2.491,0.427-3.768c2.338,1.807,5.104,3.039,8.507,3.039
				c0.002,0,0.005,0,0.009,0c-0.485-1.195-0.898-2.492-1.215-3.586C35.252,53.134,35.665,54.217,36.15,55.29z M78.584,33.484
				c5.566,2.5,9.496,7.778,11.486,13.775c0.233,0.704,0.449,1.414,0.628,2.135c0.218,0.874,0.381,1.76,0.518,2.646
				c0.121,0.787,0.217,1.575,0.271,2.364c0.045,0.651,0.074,1.302,0.074,1.95c0,0.18-0.013,0.362-0.017,0.542
				c-0.015,0.758-0.061,1.516-0.136,2.273c-0.015,0.146-0.024,0.292-0.041,0.437c-0.349,3.063-1.182,6.089-2.468,8.85
				c-2.193,4.708-5.691,8.643-10.315,10.659c0-0.212,0.106-0.424,0.106-0.636c0-2.151-0.28-4.474-0.857-6.769
				c-0.623-2.472-1.594-4.909-2.973-7.061c0.44-1.054,0.767-2.172,1.023-3.313c0.222-0.987,0.393-1.99,0.48-3.01
				c0.056-0.655,0.091-1.313,0.091-1.974c0-0.823-0.073-1.656-0.181-2.487c-0.079-0.611-0.175-1.222-0.307-1.826
				c-0.152-0.696-0.337-1.382-0.552-2.056c-0.197-0.619-0.415-1.23-0.661-1.82c0.188-0.292,0.351-0.603,0.524-0.905
				c0.837-1.462,1.52-3.033,2.043-4.651c0,0,0,0,0.001,0.001c0.91-2.812,1.368-5.742,1.368-8.377
				C78.691,34.018,78.584,33.805,78.584,33.484z M46.872,14.245c0.822-0.07,1.645-0.119,2.461-0.119c0.633,0,1.271,0.027,1.909,0.07
				c1.601,0.11,3.206,0.355,4.781,0.732c0.748,0.18,1.489,0.393,2.221,0.63c0.512,0.166,1.019,0.344,1.52,0.539
				c1.872,0.729,3.647,1.66,5.27,2.774c0.04-0.847,0.035-1.693,0.005-2.54c0.031,0.856,0.036,1.711-0.005,2.565
				c2.999,2.057,5.466,4.456,6.956,8.042h-0.532c-2.755,0-5.832,0.465-8.759,1.461c-0.388,1.076-0.943,2.092-1.614,3.04
				c-0.001-0.001-0.003-0.002-0.006-0.002c0.673-0.952,1.231-1.983,1.618-3.062c-0.665,0.226-1.321,0.479-1.965,0.757
				c-0.79,0.343-1.552,0.739-2.292,1.162c-0.307,0.175-0.622,0.343-0.918,0.533c-0.487-0.203-0.993-0.374-1.5-0.545
				c-0.007-0.002-0.013-0.005-0.021-0.007c-0.012-0.003-0.023-0.008-0.035-0.012c-1.131-0.376-2.297-0.657-3.479-0.85
				c-0.416-0.068-0.83-0.14-1.247-0.182c-0.162-0.015-0.32-0.014-0.482-0.026c-0.477-0.036-0.955-0.08-1.427-0.08
				c-2.874,0-5.745,0.532-8.299,1.595c-0.119-0.077-0.247-0.139-0.367-0.213c-4.087-2.5-9.12-3.616-13.46-3.616
				c-0.211,0-0.532,0.106-0.745,0.106C29.855,19.432,38.379,14.975,46.872,14.245z M20.164,33.592v0.638
				c0,4.151,0.731,9.028,3.011,13.029c0.173,0.302,0.335,0.613,0.522,0.905c-0.514,1.234-0.897,2.542-1.163,3.876
				c-0.284,1.428-0.431,2.884-0.431,4.314c0,2.871,0.679,5.744,1.743,8.296c-2.66,4.043-3.682,9.255-3.682,13.721v0.745
				C11.796,75.395,7.399,65.61,7.399,56.354S11.796,37.314,20.164,33.592z"/>
			<path d="M570.244,524.904c0-12.02-6.807-25.104-18.934-28.506c-3.25-11.473-15.023-18.182-26.725-18.77
				c-0.559-0.029-1.117-0.059-1.676-0.059c-1.029,0-2.066,0.068-3.105,0.168c-1.607,0.152-3.217,0.424-4.805,0.809
				c-2.326,0.562-4.6,1.367-6.754,2.406c-6.512,3.141-11.889,8.385-13.951,15.445c-6.17,1.818-10.957,6.186-14.15,11.637
				c-0.209,0.357-0.416,0.715-0.611,1.08c-0.947,1.773-1.723,3.648-2.334,5.578c-0.078,0.238-0.156,0.479-0.227,0.719
				c-0.615,2.096-1.023,4.24-1.229,6.389c-0.1,1.039-0.168,2.076-0.168,3.107c0,0.557,0.029,1.115,0.059,1.674
				c0.588,11.701,7.291,23.479,18.662,26.727c2.652,9.078,10.768,15.24,19.76,17.715c0.564,0.154,1.133,0.291,1.705,0.418
				c0.293,0.064,0.586,0.121,0.881,0.178c0.596,0.115,1.193,0.227,1.791,0.309c1.494,0.207,2.994,0.314,4.479,0.314
				c12.23,0,25.102-6.807,28.506-18.828C563.438,550.01,570.244,537.139,570.244,524.904z M544.814,523.229
				c0.068,0.566,0.113,1.133,0.113,1.678c0,0.574-0.043,1.129-0.109,1.674c-0.021,0.18-0.045,0.359-0.072,0.537
				c-0.09,0.58-0.207,1.154-0.352,1.725c-0.551-0.42-1.133-0.807-1.752-1.152c-0.807-0.451-1.68-0.822-2.607-1.109
				c-1.236-0.381-2.574-0.609-4.039-0.609c-0.143,0.068-0.283,0.139-0.424,0.207c0.141-0.154,0.283-0.391,0.424-0.793
				c-0.002,0-0.002,0-0.004,0c-1.125,0-2.256,0.805-3.348,1.195c-0.898,0.322-1.764,0.773-2.588,1.309
				c-1.467,0.953-2.783,2.199-3.811,3.625c-0.148,0.207-0.283,0.422-0.418,0.635c-0.508,0.793-0.936,1.625-1.244,2.488
				c-0.223,0.619-0.377,1.25-0.48,1.887c-0.078,0.488-0.133,0.977-0.133,1.467c0,0.256,0.018,0.504,0.029,0.752
				c0.006,0.111,0.006,0.227,0.014,0.336c0.076,1.094,0.273,2.117,0.568,3.082c0.07,0.229,0.143,0.459,0.225,0.68
				c0.488,1.332,1.176,2.545,2.035,3.66c-0.73,0.184-1.498,0.289-2.258,0.354c-0.568,0.047-1.131,0.072-1.676,0.072
				c-0.426,0-0.84-0.016-1.246-0.039c-0.633-0.035-1.25-0.104-1.859-0.213c-0.277-0.051-0.555-0.104-0.83-0.174
				c0.297-0.406,0.568-0.832,0.83-1.268c0.615-1.025,1.119-2.129,1.473-3.326c0.051-0.168,0.102-0.336,0.145-0.508
				c0.27-1.062,0.424-2.193,0.424-3.408c0-0.307-0.025-0.615-0.059-0.922c-0.039-0.396-0.104-0.789-0.193-1.182
				c-0.121-0.514-0.287-1.021-0.484-1.523c-0.336-0.85-0.775-1.672-1.303-2.451c-1.053-1.553-2.441-2.92-4.012-3.951
				c-0.861-0.568-1.773-1.041-2.715-1.379c-1.025-0.365-2.08-0.568-3.133-0.596c-0.076-0.002-0.15-0.014-0.227-0.014
				c-1.508,0-2.906,0.219-4.197,0.609c-1.621,0.49-3.068,1.256-4.312,2.262c-0.184-0.732-0.291-1.5-0.354-2.262
				c-0.047-0.566-0.072-1.131-0.072-1.674c0-1.006,0.07-2.074,0.254-3.107c0.051-0.279,0.105-0.559,0.172-0.83
				c0.389,0.301,0.795,0.572,1.207,0.83c0.986,0.615,2.047,1.104,3.189,1.447c1.264,0.381,2.623,0.594,4.113,0.594
				c2.105,0,4.232-0.781,6.111-2.041c1.555-1.043,2.93-2.418,3.973-3.973c1.26-1.877,2.041-4.004,2.041-6.109
				c0-2.812-0.805-5.182-2.041-7.182c-0.26-0.422-0.533-0.834-0.83-1.223c0.277-0.068,0.553-0.131,0.83-0.188
				c0.455-0.096,0.916-0.17,1.383-0.229c0.561-0.068,1.131-0.113,1.725-0.113c0.543,0,1.107,0.045,1.674,0.113
				c0.762,0.094,1.527,0.232,2.26,0.416c-1.004,1.242-1.77,2.656-2.26,4.244v0.002c-0.391,1.27-0.611,2.646-0.611,4.158
				c0,1.156,0.219,2.312,0.611,3.426c0.566,1.605,1.502,3.113,2.678,4.418c0.764,0.848,1.627,1.604,2.562,2.236
				c1.078,0.73,2.244,1.289,3.455,1.637c0.891,0.254,1.801,0.406,2.713,0.406c2.84,0,5.229-0.746,7.24-2.041
				c0.4-0.258,0.791-0.529,1.162-0.83c0.068,0.271,0.129,0.551,0.186,0.83C544.678,522.271,544.756,522.75,544.814,523.229z
				 M510.727,503.34c-0.264,0.635-0.385,1.023-0.812,1.582c-0.709,0.924-1.48,1.773-2.256,2.641
				c-1.477,1.65-3.244,2.992-5.217,4.023c-1.035,0.539-2.148,0.857-3.287,1.098c1.137-0.24,2.25-0.559,3.287-1.098
				c1.971-1.031,3.74-2.373,5.217-4.023c0.777-0.867,1.547-1.715,2.256-2.641C510.342,504.365,510.463,503.977,510.727,503.34
				c0.217-0.52,0.643-0.965,0.656-1.547c-0.816-0.172-1.816-0.357-2.727-0.348c0.91-0.012,1.91,0.176,2.727,0.348
				C511.369,502.377,510.945,502.822,510.727,503.34z M506.127,501.5c-0.576,0.033-1.152-0.047-1.727-0.016h0.002
				c0.578-0.033,1.15,0.049,1.73,0.016c0.408-0.023,0.84,0.064,1.25,0.068C506.971,501.564,506.537,501.477,506.127,501.5z
				 M498.299,512.852c-0.572,0.105-1.148,0.199-1.719,0.303C497.15,513.051,497.727,512.957,498.299,512.852z M535.365,515.561
				c0.059,2.002-0.314,4.072-1.262,6.238C535.051,519.633,535.424,517.564,535.365,515.561z M510.193,485.611
				c2.146-1.053,4.457-1.83,6.826-2.318c0.924-0.189,1.852-0.338,2.785-0.439c1.037-0.111,2.076-0.178,3.105-0.178
				c0.557,0,1.115,0.018,1.676,0.051c8.639,0.52,17.484,5.602,20.98,12.773h-0.531c-4.469,0-9.785,1.246-13.934,3.906
				c-1.451-0.604-3.01-1.066-4.588-1.355c-0.006-0.008-0.01-0.014-0.014-0.02c-0.637-0.117-1.273-0.207-1.914-0.264
				c-0.559-0.051-1.119-0.094-1.674-0.094c-0.562,0-1.125,0.037-1.686,0.078c-0.477,0.035-0.949,0.092-1.422,0.156
				c-0.688,0.094-1.365,0.219-2.033,0.377c-0.506,0.117-1.008,0.242-1.5,0.396c-0.562,0.176-1.121,0.363-1.658,0.588
				c-4.148-2.66-9.359-3.828-13.828-3.828c-0.211,0-0.531,0.105-0.744,0.105C502.02,491.137,505.75,487.791,510.193,485.611z
				 M493.508,546.922v0.746c-7.172-3.5-12.264-12.354-12.777-21.088c-0.031-0.561-0.051-1.117-0.051-1.676
				c0-1.031,0.064-2.07,0.178-3.105c0.131-1.199,0.332-2.395,0.609-3.574c0.156-0.664,0.33-1.324,0.531-1.975
				c0.217-0.693,0.465-1.373,0.73-2.045c0.01-0.021,0.02-0.043,0.027-0.064c0.617-1.543,1.363-3.023,2.24-4.398
				c1.371-2.146,3.059-4.033,5.035-5.533c0.02-0.006,0.039-0.016,0.057-0.021c1.051-0.795,2.223-1.492,3.418-2.043v0.637
				c0,0.117-0.02,0.24-0.02,0.361c-0.01,0.002-0.021,0.004-0.031,0.006c0.045,3.24,0.691,6.885,2.07,10.201
				c0.383,0.914,0.834,1.793,1.328,2.641c0.141,0.242,0.268,0.492,0.42,0.727c-0.043,0.102-0.072,0.209-0.111,0.311
				c-0.467,1.174-0.832,2.406-1.076,3.664c-0.072,0.367-0.109,0.738-0.162,1.107c-0.145,1.02-0.24,2.041-0.244,3.053
				c0,0.018-0.002,0.037-0.002,0.055c0,0.559,0.037,1.117,0.078,1.674c0.166,2.303,0.691,4.566,1.549,6.623
				C494.646,537.244,493.508,542.457,493.508,546.922z M524.586,567.082c-0.389,0.021-0.773,0.027-1.16,0.035
				c-0.172,0.004-0.344,0.018-0.516,0.018c-1.029,0-2.068-0.068-3.105-0.182c-1.115-0.123-2.225-0.314-3.324-0.566
				c-0.182-0.041-0.363-0.074-0.545-0.119c-1.355-0.338-2.68-0.783-3.965-1.311c-5.219-2.145-9.693-5.812-11.932-10.801
				c0.213,0,0.533,0.107,0.746,0.107c3.271,0,6.938-0.693,10.297-2.061c1.229-0.5,2.42-1.084,3.529-1.768
				c0.701,0.291,1.43,0.535,2.17,0.746c0.902,0.258,1.834,0.439,2.777,0.58c0.08,0.012,0.162,0.023,0.244,0.035
				c1.027,0.139,2.064,0.234,3.107,0.234c0.555,0,1.115-0.037,1.674-0.08c2.232-0.17,4.475-0.666,6.516-1.514
				c0.529,0.338,1.076,0.65,1.639,0.941c3.85,1.992,8.395,2.885,12.295,2.885c0.213,0,0.428-0.105,0.639-0.105
				C542.174,561.953,533.32,566.555,524.586,567.082z M552.162,547.668c0-0.213,0.107-0.426,0.107-0.637
				c0-4.469-1.17-9.682-3.83-13.83c0.857-2.055,1.35-4.32,1.516-6.621c0.041-0.557,0.078-1.115,0.078-1.676
				c0-1.029-0.115-2.07-0.279-3.105c-0.279-1.75-0.754-3.48-1.42-5.084c2.66-4.148,3.936-9.467,3.936-13.934
				c0-0.215-0.105-0.428-0.105-0.748c7.373,3.309,11.881,11.488,12.795,19.764c0.113,1.037,0.182,2.076,0.182,3.107
				c0,0.557-0.02,1.115-0.053,1.674C564.568,535.41,559.965,544.268,552.162,547.668z"/>
			<path d="M475.738,52.041c0.154,1.666,0.434,3.323,0.83,4.952c1.705-0.25,3.348-0.654,4.945-1.161
				c-0.303-1.249-0.518-2.519-0.656-3.792c-0.113-1.037-0.178-2.075-0.178-3.107c0-0.131,0.01-0.263,0.012-0.395
				c0.006-0.425,0.014-0.852,0.039-1.279c0.514-8.736,5.605-17.59,12.777-21.088v0.639c0,3.85,0.844,8.331,2.789,12.152
				c-0.01,0.006-0.016,0.012-0.025,0.018c0.309,0.605,0.639,1.197,1.002,1.763c-0.852,2.042-1.344,4.285-1.516,6.516
				c-0.025,0.344-0.037,0.686-0.049,1.029c-0.006,0.215-0.031,0.432-0.031,0.646c0,0.618,0.037,1.236,0.086,1.852
				c0.033,0.422,0.092,0.838,0.15,1.255c0.176,1.298,0.461,2.567,0.863,3.786c0.154,0.473,0.338,0.949,0.529,1.403
				c-2.66,4.042-3.799,9.255-3.799,13.722v0.745c-5.977-2.797-10.299-9.018-11.963-15.863c-1.598,0.505-3.256,0.911-4.961,1.16
				c2.275,9.343,8.676,17.688,17.961,20.342c1.838,6.292,6.133,11.169,12.109,14.403c0,0.001,0,0.001,0,0.002
				c0,0.021-0.168,0.043-0.129,0.064c2.088,1.203,4.201,2.172,6.514,2.895c0.188,0.059,0.312,0.123,0.5,0.178
				c2.076,0.609,4.17,1.015,6.293,1.22c1.039,0.101,2.062,0.17,3.092,0.17c0.557,0,1.107-0.03,1.668-0.058
				c11.709-0.588,23.578-7.297,26.826-18.77c9.355-2.648,15.533-11.039,17.82-20.393c0.133-0.544,0.26-1.089,0.367-1.638
				c0.055-0.281,0.096-0.564,0.145-0.846c0.098-0.592,0.184-1.185,0.252-1.78c0.148-1.283,0.24-2.57,0.24-3.85
				c0-12.02-6.809-25.104-18.934-28.507c-3.402-12.022-16.168-18.83-28.398-18.83c-12.02,0-25.104,6.808-28.615,18.829
				c-11.361,3.348-18.062,15.305-18.66,26.833c-0.029,0.56-0.059,1.119-0.059,1.675c0,0.315,0.023,0.632,0.031,0.949
				C475.627,50.603,475.67,51.321,475.738,52.041z M522.91,26.81c0.545,0,1.109,0.045,1.676,0.115
				c0.273,0.033,0.545,0.074,0.818,0.121c0.486,0.083,0.971,0.179,1.439,0.295c-0.354,0.438-0.67,0.903-0.963,1.382
				c-0.543,0.881-0.977,1.834-1.295,2.863c-0.002,0.004-0.002,0.007-0.004,0.011c-0.316,1.029-0.514,2.135-0.576,3.322
				c-0.014,0.274-0.033,0.545-0.033,0.827c0,1.157,0.221,2.313,0.613,3.427c1.135,3.223,3.744,6.087,6.844,7.588
				c0.387,0.187,0.777,0.357,1.178,0.5c0.596,0.213,1.207,0.36,1.822,0.462c0.078,0.013,0.156,0.031,0.234,0.042
				c0.441,0.062,0.885,0.105,1.33,0.105c0.488,0,0.961-0.027,1.424-0.07c0.125-0.012,0.242-0.03,0.365-0.044
				c0.83-0.098,1.615-0.265,2.363-0.495c0.432-0.133,0.852-0.285,1.258-0.458c1.086-0.467,2.086-1.069,2.99-1.804
				c0.186,0.733,0.326,1.499,0.42,2.262c0.068,0.566,0.113,1.131,0.113,1.675c0,0.166-0.012,0.326-0.018,0.49
				c-0.031,0.901-0.146,1.766-0.324,2.617c-0.055,0.263-0.113,0.526-0.18,0.789c-0.004,0.013-0.006,0.027-0.01,0.041
				c-0.068-0.051-0.141-0.098-0.209-0.148c-0.326-0.24-0.664-0.466-1.012-0.681c-0.553-0.342-1.135-0.651-1.746-0.919
				c-0.084-0.037-0.174-0.071-0.26-0.106c-1.535-0.634-3.25-1.018-5.176-1.018c-0.211,0-0.42,0.025-0.629,0.04
				c-0.283,0.021-0.564,0.05-0.848,0.096c-0.121,0.019-0.242,0.042-0.363,0.067c-1.5,0.3-2.959,0.944-4.289,1.841
				c-2.383,1.606-4.338,4.001-5.279,6.622c-0.395,1.094-0.613,2.226-0.613,3.354c0,1.512,0.223,2.892,0.613,4.169
				c0.096,0.312,0.201,0.618,0.318,0.917c0.482,1.237,1.131,2.376,1.939,3.425c-0.73,0.183-1.496,0.289-2.258,0.353
				c-0.566,0.046-1.131,0.072-1.676,0.072c-0.287,0-0.568-0.007-0.848-0.018c-0.773-0.027-1.52-0.099-2.258-0.233
				c-0.277-0.05-0.553-0.105-0.828-0.173c0.295-0.408,0.568-0.833,0.828-1.268c1.236-2.061,2.043-4.433,2.043-7.243
				c0-0.804-0.121-1.61-0.33-2.404c-0.338-1.283-0.934-2.527-1.713-3.676c-1.033-1.525-2.389-2.871-3.924-3.896
				c-1.889-1.262-4.037-2.042-6.16-2.042c-2.84,0-5.301,0.747-7.338,2.042c-0.406,0.258-0.801,0.529-1.17,0.83
				c-0.068-0.271-0.123-0.55-0.172-0.83c-0.186-1.033-0.256-2.102-0.256-3.106c0-0.544,0.025-1.108,0.072-1.675
				c0.062-0.763,0.17-1.529,0.355-2.262c1.301,1.007,2.742,1.771,4.344,2.262c1.277,0.39,2.654,0.609,4.164,0.609
				c1.117,0,2.244-0.217,3.334-0.609c2.666-0.958,5.115-2.97,6.75-5.405c0.779-1.159,1.373-2.413,1.713-3.702
				c0.209-0.796,0.33-1.603,0.33-2.408c0-2.284-0.537-4.275-1.398-6.018c-0.197-0.402-0.414-0.789-0.645-1.165
				c-0.262-0.422-0.533-0.833-0.83-1.223c0.275-0.069,0.553-0.13,0.83-0.188c0.332-0.069,0.666-0.13,1.002-0.181
				C521.488,26.871,522.184,26.81,522.91,26.81z M519.805,29.755c-1.133-0.276-2.283-0.426-3.453-0.426c0.002,0,0.004,0,0.006,0
				C517.527,29.33,518.67,29.479,519.805,29.755z M524.586,91.11c-0.561,0.034-1.117,0.053-1.676,0.053
				c-1.029,0-2.068-0.067-3.105-0.182c-1.4-0.154-2.797-0.411-4.168-0.769c-0.732-0.191-1.457-0.416-2.172-0.664
				c-0.598-0.207-1.188-0.433-1.768-0.679c-0.047-0.019-0.094-0.038-0.139-0.059c-1.717-0.738-3.346-1.638-4.836-2.703
				c-2.137-1.53-3.975-3.392-5.375-5.556c-0.488-0.755-0.936-1.538-1.309-2.368c0.186,0,0.445,0.073,0.652,0.093
				c0.029,0.002,0.066,0.013,0.092,0.013c2.936,0,6.188-0.562,9.252-1.664c0.244-0.088,0.488-0.182,0.73-0.277
				c0.896-0.353,1.773-0.75,2.617-1.2c0.414-0.221,0.83-0.444,1.229-0.688c1.062,0.442,2.189,0.771,3.342,1.029
				c0.285,0.063,0.566,0.137,0.855,0.19c0.328,0.06,0.662,0.096,0.994,0.14c1.027,0.14,2.064,0.234,3.107,0.234
				c0.555,0,1.115-0.037,1.674-0.08c2.232-0.171,4.475-0.666,6.516-1.514c4.148,2.657,9.465,3.827,13.934,3.827
				c0.213,0,0.428-0.106,0.639-0.106C542.174,85.982,533.32,90.584,524.586,91.11z M552.27,26.81c0-0.214-0.107-0.427-0.107-0.747
				c7.799,3.5,12.398,12.448,12.926,21.196c0.006,0.113,0.004,0.227,0.01,0.341c0.021,0.446,0.043,0.891,0.043,1.334
				c0,1.034-0.068,2.071-0.18,3.106c-0.096,0.875-0.23,1.745-0.406,2.609c-0.039,0.2-0.084,0.398-0.129,0.597
				c-0.297,1.334-0.678,2.647-1.158,3.918c-2.092,5.526-5.879,10.255-11.105,12.532c0-0.211,0.107-0.424,0.107-0.636
				c0-3.478-0.721-7.4-2.289-10.927c-0.447-1.005-0.951-1.983-1.543-2.902c0.377-0.902,0.662-1.854,0.904-2.822
				c0.195-0.776,0.348-1.566,0.457-2.368c0.02-0.151,0.047-0.301,0.062-0.453c0.102-0.88,0.172-1.765,0.172-2.654
				c0-0.555-0.045-1.115-0.094-1.675c-0.199-2.231-0.758-4.474-1.607-6.516c0.502-0.783,0.939-1.617,1.344-2.471
				C551.412,34.608,552.27,30.433,552.27,26.81z M519.805,6.883c1.037-0.112,2.076-0.178,3.105-0.178
				c0.557,0,1.115,0.018,1.676,0.052c8.639,0.52,17.482,4.644,20.98,13.011h-0.531c-4.469,0-9.785,1.128-13.934,3.788
				c-2.043-0.851-4.285-1.56-6.516-1.758c-0.031-0.002-0.062-0.002-0.096-0.005c-0.174-0.014-0.346-0.019-0.52-0.029
				c-0.355-0.021-0.709-0.059-1.061-0.059c-1.043,0-2.08,0.095-3.107,0.234c-1.803,0.246-3.564,0.683-5.191,1.36
				c-4.148-2.66-9.359-3.829-13.828-3.829c-0.211,0-0.531,0.106-0.744,0.106C503.348,12.203,511.529,7.779,519.805,6.883z"/>
			<path d="M97.203,506.994c-2.978-7.447-8.597-13.762-16.483-15.977c-2.457-8.674-9.792-14.613-18.279-17.26
				c-2.089-0.652-4.243-1.102-6.417-1.344c-0.238-0.025-0.476-0.053-0.715-0.074c-0.997-0.09-1.994-0.15-2.989-0.15
				c-0.357,0-0.719,0.025-1.078,0.039c-11.715,0.391-24.131,7.127-27.538,18.789c-11.312,3.332-18.01,15.203-18.657,26.686
				c1.585-1.037,3.366-1.971,5.224-2.445c1.169-7.844,5.112-15.344,12.284-18.496v0.639c0,4.467,1.321,9.785,3.98,13.934
				c-0.319,0.768-0.5,1.566-0.723,2.379c0.024,0.002,0.049,0.006,0.073,0.008c-0.49,1.783-0.75,3.643-0.778,5.469
				c-0.001,0.111-0.015,0.225-0.015,0.336c0,0.76,0.043,1.52,0.117,2.273c0.007,0.074,0.022,0.145,0.031,0.219
				c0.171,1.568,0.512,3.104,1.006,4.562c0.141,0.416,0.273,0.838,0.44,1.242c-1.346,2.045-2.307,4.391-2.932,6.785
				c0.444,0.189,0.888,0.377,1.338,0.555c-0.45-0.178-1.043-0.365-1.487-0.555c-0.609,2.34-1.048,4.729-1.048,6.936v0.744
				c-5.977-2.775-9.902-8.924-11.591-15.707c-0.014-0.057-0.03-0.113-0.043-0.17c-0.368-1.516-0.606-3.064-0.729-4.611
				c-0.061-0.76-0.102-1.518-0.102-2.273c0-0.041,0.003-0.082,0.003-0.123c0.001-0.299,0.017-0.598,0.027-0.896
				c0.04-1.084,0.14-2.168,0.3-3.248c-1.856,0.475-3.788,1.408-5.373,2.445c-0.014,0.254-0.018,0.508-0.026,0.762
				c-0.005,0.139-0.012,0.277-0.014,0.416c-0.005,0.215-0.023,0.43-0.023,0.645c0,0.131,0.012,0.264,0.013,0.396
				c0.145,12.111,6.922,24.637,18.707,28.004c3.408,11.662,15.823,18.498,27.538,18.896c0.36,0.012,0.721,0.039,1.079,0.039
				c1.231,0,2.469-0.088,3.703-0.225c11.022-1.219,21.741-7.795,24.802-18.605c9.709-2.748,16.012-11.676,18.079-21.451
				c0.333-1.58,0.562-3.18,0.67-4.781c0.052-0.76,0.079-1.518,0.079-2.273c0-1.744-0.16-3.506-0.441-5.262
				C98.814,511.787,98.139,509.336,97.203,506.994z M62.298,496.492c0.007,1.213,0.112,2.422,0.349,3.609
				c0.187,0.93,0.392,1.865,0.642,2.785c-0.25-0.92-0.457-1.855-0.642-2.785C62.411,498.914,62.306,497.705,62.298,496.492z
				 M76.778,510.645c-0.003-0.301-0.029-0.594-0.083-0.865c-0.026-0.133-0.035-0.271-0.033-0.414c0,0.137,0.008,0.27,0.033,0.398
				C76.751,510.041,76.775,510.338,76.778,510.645z M51.242,477.33c0.36-0.014,0.72-0.035,1.078-0.035
				c0.814,0,1.633,0.049,2.452,0.121c0.417,0.037,0.834,0.076,1.251,0.133c1.957,0.258,3.896,0.721,5.766,1.373
				c0.338,0.117,0.675,0.236,1.008,0.367c2.924,1.145,5.617,2.775,7.836,4.846c-0.565-1.152-1.134-2.289-1.872-3.361
				c0.736,1.072,1.307,1.941,1.872,3.094c1.812,1.689,3.314,4.463,4.344,5.658h-0.532c-0.351,0-0.712,0.291-1.072,0.307
				c1.132,2.934,1.782,6.113,2.405,9.238c0.477,2.385,0.566,4.818,0.566,7.254c0,0.02,0,0.039,0,0.059
				c0-2.434-0.089-4.797-0.566-7.18c-0.623-3.125-1.374-6.215-2.505-9.148c-2.869,0.125-5.943,0.668-8.858,1.863h0.025
				c-0.656,0-1.287,0.59-1.915,0.904l0,0c-0.696,0.348-1.373,0.738-2.019,1.154c-0.9-0.375-1.843-0.664-2.803-0.924
				c-0.556-0.15-1.113-0.279-1.679-0.385c-0.083-0.016-0.166-0.023-0.25-0.037c-1.15-0.203-2.309-0.336-3.452-0.336
				c-0.36,0-0.719,0.035-1.079,0.051c-1.49,0.07-2.963,0.281-4.387,0.639c-0.951,1.318-1.928,2.623-2.898,3.92
				c-4.584,6.113-9.549,12.742-9.731,19.732c-0.002-0.002-0.006-0.004-0.01-0.006c0.184-6.988,5.152-13.615,9.735-19.727
				c0.972-1.297,1.949-2.602,2.901-3.92c-0.972,0.244-1.927,0.529-2.833,0.906c-4.147-2.658-9.358-3.826-13.827-3.826
				c-0.212,0-0.532,0.105-0.745,0.105C33.026,482.191,42.307,477.668,51.242,477.33z M30.216,520.512
				c-0.016-0.334-0.023-0.664-0.023-0.986c0-1.277,0.106-2.66,0.427-3.938c1.1,0.852,2.299,1.529,3.61,2.018
				c0.707,0.264,1.448,0.469,2.225,0.611c0.847,0.154,1.734,0.242,2.674,0.242c0.792,0,1.586-0.115,2.37-0.318
				c5.048-1.307,9.621-6.5,9.743-11.598c0.001-0.07,0.013-0.139,0.013-0.209c0-0.104-0.011-0.201-0.013-0.305
				c-0.042-1.98-0.475-3.748-1.185-5.311c-0.458-1.01-1.027-1.939-1.673-2.789c0.938-0.234,1.876-0.408,2.858-0.484
				c0.353-0.027,0.711-0.045,1.078-0.045c0.06,0,0.123,0.006,0.183,0.008c1.147,0.018,2.368,0.197,3.52,0.473
				c0.077,0.018,0.155,0.031,0.23,0.051c-0.081,0.1-0.153,0.207-0.23,0.309c-1.662,2.182-2.641,4.844-2.641,8.096
				c0,2.502,1.024,4.994,2.641,7.07c2.302,2.955,5.817,5.053,9.379,5.053c1.982,0,3.743-0.369,5.312-1.027
				c0.195-0.08,0.388-0.164,0.575-0.256c0.904-0.434,1.743-0.961,2.515-1.588c0.321,1.277,0.532,2.66,0.532,3.938
				c0,0.152-0.012,0.301-0.017,0.451c-0.021,0.623-0.08,1.229-0.176,1.822c-0.09,0.559-0.202,1.111-0.341,1.662
				c-0.841-0.643-1.758-1.207-2.756-1.662c-1.324-0.605-2.792-1.018-4.416-1.156c-0.4-0.035-0.811-0.053-1.23-0.053
				c-1.604,0-3.212,0.451-4.711,1.209c-1.787,0.902-3.406,2.256-4.668,3.863c-0.234,0.299-0.456,0.604-0.664,0.918
				c-0.229,0.346-0.44,0.699-0.634,1.062c-0.84,1.57-1.343,3.27-1.343,4.965c0,0.873,0.073,1.705,0.208,2.5
				c0.367,2.156,1.219,4.027,2.434,5.689c0.078,0.105,0.149,0.217,0.23,0.322c-0.075,0.02-0.154,0.029-0.23,0.049
				c-0.98,0.223-2.009,0.33-3.002,0.359c-0.236,0.008-0.471,0.016-0.701,0.016c-0.367,0-0.724-0.008-1.078-0.023
				c-0.978-0.047-1.913-0.164-2.847-0.398c-0.003,0-0.007,0-0.011-0.002c0.002-0.002,0.003-0.006,0.006-0.008
				c0.985-1.357,1.781-2.861,2.286-4.545c0.143-0.479,0.269-0.965,0.361-1.475c0.125-0.695,0.19-1.422,0.207-2.178
				c0.002-0.102,0.013-0.199,0.013-0.305c0-0.068-0.012-0.137-0.013-0.207c-0.039-1.645-0.545-3.289-1.38-4.811
				c-0.189-0.344-0.393-0.68-0.614-1.01c-1.346-2.006-3.255-3.709-5.389-4.781c-0.385-0.193-0.774-0.367-1.17-0.516
				c-1.162-0.439-2.363-0.693-3.56-0.693c-0.142,0-0.278,0.014-0.418,0.018c-0.279,0.006-0.56,0.01-0.831,0.031
				c-1.074,0.086-2.084,0.293-3.039,0.588c-0.527,0.164-1.039,0.35-1.527,0.572c-0.018,0.008-0.034,0.018-0.051,0.025
				c-0.042,0.02-0.083,0.041-0.125,0.062c-0.91,0.432-1.753,0.955-2.519,1.574c-0.135-0.541-0.226-1.102-0.293-1.664
				C30.276,521.367,30.235,520.938,30.216,520.512z M56.023,561.502c-1.233,0.162-2.473,0.252-3.703,0.252
				c-0.358,0-0.718-0.02-1.078-0.033c-8.935-0.348-18.214-4.969-21.793-12.943c0.211,0,0.532,0.107,0.745,0.107
				c4.468,0,9.68-1.277,13.828-3.828c1.971,0.82,4.132,1.316,6.336,1.504c0.294,0.025,0.589,0.027,0.885,0.041
				c0.36,0.016,0.717,0.049,1.078,0.049c0.896,0,1.799-0.076,2.703-0.188c0.334-0.041,0.668-0.086,1.001-0.143
				c1.544-0.264,3.066-0.672,4.487-1.264c4.148,2.658,9.465,3.828,13.934,3.828c0.211,0,0.426-0.107,0.638-0.107
				C71.853,555.971,64.067,560.439,56.023,561.502z M93.672,526.58c-1.714,6.848-5.896,13.002-12.1,15.707
				c0-0.211,0.106-0.424,0.106-0.637c0-4.467-1.17-9.68-3.83-13.828c0.167-0.404,0.299-0.826,0.44-1.242
				c0.429-1.268,0.735-2.59,0.919-3.943c0.039-0.279,0.091-0.557,0.119-0.838c0.05-0.514,0.067-1.031,0.083-1.549
				c0.007-0.242,0.034-0.484,0.034-0.725c0-0.441-0.043-0.889-0.074-1.334c-0.136-1.908-0.549-3.82-1.181-5.629
				c-0.145-0.412-0.28-0.83-0.444-1.229c2.659-4.146,3.936-9.467,3.936-13.934c0-0.213-0.106-0.426-0.106-0.746
				c4.583,2.057,8.057,6.002,10.253,10.676c1.032,2.195,1.786,4.547,2.233,6.945c0.324,1.742,0.491,3.506,0.491,5.25
				c0,0.756-0.042,1.516-0.103,2.273C94.317,523.406,94.064,525.012,93.672,526.58z"/>
		</g>
	</g>
</g>
</svg>