<?xml version="1.0" encoding="UTF-8"?>
<!DOCTYPE svg PUBLIC "-//W3C//DTD SVG 1.1//EN" "http://www.w3.org/Graphics/SVG/1.1/DTD/svg11.dtd">
<!-- Creator: CorelDRAW -->
<svg xmlns="http://www.w3.org/2000/svg" xml:space="preserve" width="2048px" height="2048px" style="shape-rendering:geometricPrecision; text-rendering:geometricPrecision; image-rendering:optimizeQuality; fill-rule:evenodd; clip-rule:evenodd"
viewBox="0 0 2048 2048"
 xmlns:xlink="http://www.w3.org/1999/xlink">
 <defs>
  <style type="text/css">
   <![CDATA[
    .fil0 {fill:none}
    .fil4 {fill:#858585}
    .fil1 {fill:#9A9B9B}
    .fil2 {fill:#ACACAC}
    .fil3 {fill:#C3C3C3}
   ]]>
  </style>
 </defs>
 <g id="Layer_x0020_1">
  <metadata id="CorelCorpID_0Corel-Layer"/>
  <rect class="fil0" width="2048" height="2048"/>
  <rect class="fil0" x="255.999" y="255.999" width="1536" height="1536"/>
  <g id="_345256216">
   <path id="_345256696" class="fil1" d="M1022.21 588.334c41.0422,31.8366 672.208,364.74 672.33,364.74l-9.27875 452.259c-0.354331,12.6413 -4.99252,24.2043 -12.4878,33.267 -7.61221,9.17835 -18.2008,15.8575 -30.4547,18.3614l-0.237402 0 -556.35 112.917 0 0.116929c-7.49174,1.54961 -17.8417,2.74607 -28.4244,3.45827 -6.08268,0.457087 -11.7036,0.662599 -17.1036,0.679134l-1.61339 0c-13.7043,-0.056693 -26.1355,-1.32402 -41.3587,-2.82047 -7.73268,-0.837402 -15.463,-2.03386 -23.0752,-3.58347l0 0 -572.527 -110.646 -0.594095 -0.121654c-12.1335,-2.50394 -22.7209,-9.18308 -30.3331,-18.3614 -7.61339,-9.06261 -12.2528,-20.6256 -12.4913,-33.267l-9.51497 -368.435c15.1051,-609.174 270.976,-465.254 673.515,-448.563l0 -0.0011811z"/>
   <path id="_345256624" class="fil1" d="M1027.81 592.151l0.946064 0.594095c78.1536,50.3174 665.666,360.329 665.788,360.329l-9.27875 452.259c-0.354331,12.6413 -4.99252,24.2043 -12.4878,33.267 -7.61221,9.17835 -18.2008,15.8575 -30.4547,18.3614l-0.237402 0 -556.35 112.917 0 0.116929c-7.49174,1.54961 -17.8417,2.74607 -28.4244,3.45827 -5.75315,0.445276 -11.0681,0.65315 -16.1776,0.679134l-2.24173 0c-3.71575,-0.0200788 -7.34056,-0.134646 -10.9642,-0.32126l-0.116929 0 0 -981.66z"/>
   <path id="_345256552" class="fil2" d="M1022.21 588.334c1.30866,0.95315 3.2126,2.26299 5.59607,3.81733l0 981.66c-9.75828,-0.474804 -19.3961,-1.42913 -30.5752,-2.49921 -7.73268,-0.837402 -15.463,-2.03386 -23.0752,-3.58347l0 0 -572.527 -110.646 -0.594095 -0.121654c-12.1335,-2.50394 -22.7209,-9.18308 -30.3331,-18.3614 -7.61339,-9.06261 -12.2528,-20.6256 -12.4913,-33.267l-9.51497 -368.435c15.1051,-609.174 270.976,-465.254 673.515,-448.563l0 -0.0011811z"/>
   <polygon id="_345256480" class="fil3" points="608.734,1225.05 447.665,1219.56 447.665,1323.42 608.734,1354.3 "/>
   <path id="_345256408" class="fil4" d="M1768.42 1015.44l-548.376 -48.2918c-22.3666,-1.90394 -41.7544,-8.5878 -53.5335,-28.3795l-143.692 -316.927 -138.941 313.351c-8.8004,18.0047 -24.8622,28.617 -48.2965,31.9547l-548.138 47.5748c-10.1114,1.0748 -19.7469,-0.832678 -28.1918,-4.77048 -8.56536,-4.05 -15.8209,-10.2543 -21.176,-17.6457 -5.35276,-7.62993 -8.68347,-16.5756 -9.75355,-25.9925 -0.831497,-9.30001 0.594095,-18.9579 4.87678,-28.2626l143.222 -306.671c3.68859,-7.86969 9.15946,-14.6658 15.8197,-19.9146 6.66378,-5.12717 14.6351,-8.82166 23.1957,-10.3677l606.546 -111.607 617.852 111.486 0.232677 0.121654c8.56654,1.54606 16.5366,5.24174 23.1992,10.3677 6.65906,5.24882 12.1335,12.0449 15.9378,19.9146l143.342 307.268c3.48307,7.363 5.10355,15.026 5.15433,22.4551l0 0.732284c-0.011811,1.70669 -0.106299,3.40158 -0.279921,5.0752 -0.949607,9.53741 -4.39961,18.4831 -9.75473,25.9914 -5.23229,7.39134 -12.4913,13.5921 -21.1748,17.6457 -8.44135,3.9378 -17.9575,5.84174 -28.0701,4.89213l0 0z"/>
   <path id="_345256336" class="fil3" d="M1767.94 1007.44l-551.946 -55.9158c-9.75473,-0.959056 -18.7961,-4.41733 -26.2925,-9.90001 -7.61221,-5.48386 -13.7953,-13.1173 -17.7248,-22.0583l0 0 -149.763 -331.236 -146.666 331.236 0.115748 0c-3.92481,8.94095 -10.1126,16.5744 -17.7248,22.0583 -7.49174,5.48268 -16.6547,8.94095 -26.4083,9.90001l-551.945 55.9158c-10.1102,1.07126 -19.6264,-0.832678 -28.0736,-4.77048 -8.68347,-4.05355 -15.9378,-10.2543 -21.1725,-17.641 -5.35276,-7.63347 -8.80394,-16.5791 -9.75355,-26.1166 -0.178347,-1.72087 -0.272835,-3.45945 -0.281103,-5.20867l0 -0.437008c0.0318898,-7.44331 1.65118,-15.0815 5.15788,-22.4965l146.907 -314.896c3.8067,-7.9878 9.27993,-14.7827 15.9414,-19.9134 6.66024,-5.24528 14.628,-8.82166 23.1969,-10.3713l606.544 -111.724 617.847 111.601 0.240945 0.121654c8.563,1.54961 16.5331,5.12717 23.1921,10.3724 6.6626,5.13071 12.1323,11.9256 15.8244,19.9134l147.026 314.896c4.39961,9.30473 5.82874,18.9626 4.87441,28.1421 -0.944883,9.53741 -4.40079,18.4831 -9.75473,26.1166 -5.23229,7.38662 -12.4878,13.5874 -21.1701,17.641 -8.44607,3.9378 -17.9634,5.84174 -28.1918,4.77166l0 -0.0011811z"/>
   <polygon id="_345256288" class="fil3" points="1408.46,1225.05 1569.64,1219.56 1569.64,1323.42 1408.46,1354.3 "/>
  </g>
 </g>
</svg>
